<?xml version="1.0" encoding="UTF-8" standalone="no"?>
<!-- Created with Inkscape (http://www.inkscape.org/) -->

<svg
   xmlns:dc="http://purl.org/dc/elements/1.1/"
   xmlns:cc="http://creativecommons.org/ns#"
   xmlns:rdf="http://www.w3.org/1999/02/22-rdf-syntax-ns#"
   xmlns:svg="http://www.w3.org/2000/svg"
   xmlns="http://www.w3.org/2000/svg"
   xmlns:sodipodi="http://sodipodi.sourceforge.net/DTD/sodipodi-0.dtd"
   xmlns:inkscape="http://www.inkscape.org/namespaces/inkscape"
   id="svg4190"
   version="1.1"
   inkscape:version="0.91 r13725"
   width="659.88202"
   height="660.17139"
   viewBox="0 0 659.88202 660.17139"
   sodipodi:docname="logo.png">
  <metadata
     id="metadata4196">
    <rdf:RDF>
      <cc:Work
         rdf:about="">
        <dc:format>image/svg+xml</dc:format>
        <dc:type
           rdf:resource="http://purl.org/dc/dcmitype/StillImage" />
        <dc:title></dc:title>
      </cc:Work>
    </rdf:RDF>
  </metadata>
  <defs
     id="defs4194" />
  <sodipodi:namedview
     pagecolor="#ffffff"
     bordercolor="#666666"
     borderopacity="1"
     objecttolerance="10"
     gridtolerance="10"
     guidetolerance="10"
     inkscape:pageopacity="0"
     inkscape:pageshadow="2"
     inkscape:window-width="1920"
     inkscape:window-height="993"
     id="namedview4192"
     showgrid="false"
     fit-margin-top="0"
     fit-margin-left="0"
     fit-margin-right="0"
     fit-margin-bottom="0"
     inkscape:zoom="0.90314465"
     inkscape:cx="618.1252"
     inkscape:cy="360.94765"
     inkscape:window-x="0"
     inkscape:window-y="24"
     inkscape:window-maximized="1"
     inkscape:current-layer="svg4190" />
  <g
     id="g4219"
     transform="translate(-434.86227,-97.076759)">
    <path
       sodipodi:nodetypes="ccccccccc"
       style="fill:#fdfdfd"
       d="m 497.15181,484.32626 33.21727,-218.58809 279.57872,-109.617 164.4255,76.39973 28.7883,192.01427 0,223.01706 -244.14695,0 -166.64,32.11003 z"
       id="path4214"
       inkscape:connector-curvature="0" />
    <path
       style="fill:#a1d5d4"
       d="m 738.55327,756.85825 c -61.38455,-6.5182 -109.86479,-23.46484 -156.875,-54.83684 -20.70671,-13.8185 -33.94411,-24.61569 -50.60354,-41.27511 -50.96396,-50.96396 -82.5032,-114.35279 -94.0234,-188.97205 -2.91875,-18.90549 -2.91875,-70.60749 0,-89.51298 11.5202,-74.61926 43.05944,-138.00809 94.0234,-188.97205 50.96396,-50.96396 114.35279,-82.5032 188.97205,-94.023399 18.90549,-2.918749 70.60749,-2.918749 89.51298,0 74.61926,11.520199 138.00808,43.059439 188.97201,94.023399 50.96403,50.96396 82.50323,114.35279 94.02343,188.97205 2.9188,18.90549 2.9188,70.60749 0,89.51298 -11.5202,74.61926 -43.0594,138.00809 -94.02343,188.97205 -50.79369,50.79373 -115.25813,82.92106 -188.34906,93.86808 -12.40028,1.85723 -60.94843,3.37804 -71.62944,2.24387 z M 697.95573,646.39276 c 0.84177,-1.33274 1.18979,-1.40674 1.2034,-0.25586 0.0241,2.03717 8.53059,0.67299 10.96145,-1.75789 0.89653,-0.89651 2.43495,-1.32115 3.41873,-0.94364 0.98377,0.37751 4.87016,-0.7714 8.63641,-2.55311 3.76626,-1.78173 7.38489,-3.2395 8.04141,-3.2395 0.65652,0 1.48719,-0.76491 1.84594,-1.6998 0.35875,-0.93489 3.09585,-2.3151 6.08244,-3.06713 5.2967,-1.33372 10.5692,-5.73807 15.24292,-12.73307 1.14839,-1.71875 2.35657,-2.98649 2.68482,-2.81721 1.33764,0.68983 6.85502,-5.29768 6.85502,-7.43915 0,-1.30905 1.35065,-2.81904 3.125,-3.49364 1.8604,-0.70733 3.125,-2.17561 3.125,-3.62834 0,-1.34211 1.38118,-3.52665 3.06929,-4.85451 2.29677,-1.80665 3.37768,-4.32928 4.29457,-10.02264 0.67391,-4.18457 1.82398,-8.72699 2.55571,-10.09424 0.73174,-1.36726 1.33043,-3.9468 1.33043,-5.73232 0,-1.78553 0.75351,-3.53556 1.67447,-3.88898 2.12322,-0.81475 2.6911,-7.45192 2.69635,-31.51347 0.003,-12.94061 -0.4553,-19.39696 -1.41916,-20 -0.78285,-0.48978 -2.07289,-5.10925 -2.86677,-10.2655 -0.79388,-5.15625 -1.9815,-9.5625 -2.63915,-9.79166 -0.65766,-0.22918 -1.19574,-2.0573 -1.19574,-4.0625 0,-2.00522 -0.5957,-3.64584 -1.32378,-3.64584 -0.72807,0 -1.01551,-0.49876 -0.63876,-1.10836 0.37676,-0.6096 -0.15255,-1.80348 -1.17622,-2.65307 -1.02368,-0.84957 -1.86124,-2.57606 -1.86124,-3.83662 0,-1.26056 -1.60071,-5.00675 -3.55715,-8.32486 -3.12624,-5.30213 -3.33236,-6.24292 -1.70154,-7.76633 1.4887,-1.39065 3.11892,-1.46882 8.24465,-0.39532 3.51398,0.73594 9.76404,1.13766 13.88904,0.89271 25.08202,-1.48936 29.93,-2.47141 34.9232,-7.07435 2.43811,-2.24755 3.74634,-2.70417 6.65603,-2.32326 0.86857,0.11375 1.91313,-0.6634 2.32123,-1.7269 0.40812,-1.0635 1.79612,-1.93364 3.08447,-1.93364 1.37703,0 2.64683,-1.15914 3.08101,-2.8125 0.40621,-1.54688 3.21198,-4.76466 6.23504,-7.15065 3.25453,-2.56868 5.8087,-5.75973 6.26196,-7.8234 0.42102,-1.9169 1.29794,-3.1562 1.9487,-2.754 1.59606,0.98642 5.75486,-4.30156 6.57444,-8.35949 0.37004,-1.83226 1.73243,-3.55511 3.09253,-3.91078 1.46824,-0.38397 2.77051,-2.18108 3.28806,-4.53747 0.47134,-2.14593 1.39943,-3.90171 2.06244,-3.90171 0.66301,0 1.11418,-0.70313 1.00258,-1.5625 -0.49644,-3.82303 0.19204,-5.82115 1.79391,-5.20645 1.17391,0.45046 1.92792,-0.74823 2.43459,-3.87037 0.45218,-2.78652 1.988,-5.50938 4.00037,-7.09232 1.79653,-1.41314 2.98989,-3.28995 2.65193,-4.17069 -0.33798,-0.88073 0.42392,-1.87288 1.6931,-2.20478 1.26918,-0.3319 2.49588,-1.9342 2.72601,-3.56066 0.23011,-1.62648 1.26215,-2.98279 2.2934,-3.01404 1.03125,-0.0312 1.73437,-0.73438 1.5625,-1.5625 -0.17188,-0.82813 0.25,-1.50569 0.9375,-1.50569 1.55664,0 6.25,-4.60064 6.25,-6.12653 0,-1.42927 8.29774,-6.37347 10.69645,-6.37347 0.99195,0 1.80355,-0.5957 1.80355,-1.32377 0,-0.72808 0.5625,-0.97613 1.25,-0.55123 0.6875,0.4249 1.25861,0.0362 1.26914,-0.86373 0.0141,-1.2025 0.37066,-1.13922 1.34516,0.23873 0.99789,1.41101 1.48291,1.48835 1.96003,0.3125 0.82808,-2.04081 17.92567,-2.19983 17.92567,-0.16671 0,0.78037 1.10226,1.10754 2.5,0.74202 1.375,-0.35957 2.5,-0.1085 2.5,0.55779 0,0.66635 0.98437,1.09116 2.1875,0.94401 1.20312,-0.14714 4.15625,0.63924 6.5625,1.7475 2.40625,1.10828 3.93095,2.03705 3.38821,2.06396 -0.54272,0.0269 -0.26147,0.83364 0.625,1.79273 0.88649,0.95909 2.03366,1.48839 2.54929,1.17622 0.51562,-0.31216 0.9375,0.59063 0.9375,2.00621 0,1.41557 0.5625,2.57377 1.25,2.57377 0.6875,0 1.25,1.10735 1.25,2.46077 0,1.49037 0.6332,2.21778 1.6057,1.84461 1.09633,-0.42071 2.37787,2.20263 4.03984,8.26958 1.33877,4.88717 2.84164,9.1376 3.3397,9.44543 0.49807,0.30782 0.60382,1.34603 0.23501,2.30715 -0.36883,0.96111 0.35887,3.89622 1.61709,6.52247 1.98882,4.15124 2.28766,8.14619 2.28766,30.58243 0,22.40749 -0.27645,26.11275 -2.09842,28.125 -1.15414,1.27466 -2.15435,2.88006 -2.2227,3.56756 -0.54557,5.48755 -1.81619,10.79409 -2.71807,11.35148 -0.5972,0.36908 -1.08581,1.76287 -1.08581,3.0973 0,1.33442 -0.70312,2.2856 -1.5625,2.11372 -0.87309,-0.17461 -1.40044,0.65268 -1.1952,1.875 0.20201,1.20313 -0.21986,2.1875 -0.9375,2.1875 -0.71764,0 -1.3048,1.00389 -1.3048,2.23088 0,2.17388 -3.30362,6.71625 -10.34137,14.219 -1.90652,2.03247 -3.17137,4.17276 -2.81078,4.75618 0.36058,0.58344 -0.47017,0.76639 -1.84612,0.40658 -1.37595,-0.35983 -2.50173,-0.0579 -2.50173,0.6709 0,0.72881 -1.6875,2.32195 -3.75,3.5403 -2.0625,1.21835 -3.75,3.0314 -3.75,4.029 0,0.99761 -0.37142,1.44241 -0.82539,0.98845 -0.45395,-0.45396 -1.61085,0.29604 -2.57087,1.66666 -0.96003,1.37063 -2.79843,2.49205 -4.08534,2.49205 -1.2869,0 -3.22376,0.88393 -4.30411,1.96429 -1.08036,1.08035 -1.96429,1.53535 -1.96429,1.01109 0,-0.52427 -0.82586,0.13868 -1.83525,1.47321 -1.03377,1.36677 -1.8526,1.74406 -1.875,0.86391 -0.057,-2.24251 -2.53975,-1.93704 -2.53975,0.3125 0,1.22024 -1.22222,1.875 -3.5,1.875 -1.925,0 -4.16695,0.66695 -4.9821,1.4821 -1.03017,1.03018 -7.79016,1.45805 -22.16975,1.40323 -17.74145,-0.0676 -21.02611,-0.38515 -23.06414,-2.22955 -1.30706,-1.18288 -2.92722,-1.8103 -3.60035,-1.39429 -1.96147,1.21226 -7.68366,-1.51368 -7.68366,-3.66035 0,-1.0784 -0.70313,-1.81132 -1.5625,-1.6287 -0.85938,0.18261 -3.18014,-1.18844 -5.15726,-3.04679 -1.97711,-1.85835 -4.08649,-3.0749 -4.6875,-2.70346 -0.601,0.37145 -1.09274,-0.38779 -1.09274,-1.68719 0,-1.2994 -1.34411,-3.0819 -2.98693,-3.96111 -1.64281,-0.8792 -3.59456,-2.93216 -4.33722,-4.56213 -1.04426,-2.2919 -6.42585,-26.38805 -6.42585,-28.77184 0,-0.26946 -1.1629,-0.48992 -2.58424,-0.48992 -2.06615,0 -2.4152,0.53257 -1.74107,2.65654 0.516,1.6258 0.36336,2.36001 -0.39342,1.8923 -2.58888,-1.60003 -3.09305,22.49783 -0.9313,44.51366 0.18564,1.89062 0.40784,5.96875 0.49378,9.0625 0.12225,4.39951 0.61921,5.625 2.28125,5.625 1.65277,0 1.79166,0.33334 0.625,1.5 -2.02978,2.02977 -1.88873,3.5 0.33577,3.5 1.05924,0 1.55194,0.73964 1.16478,1.74856 -0.36904,0.96171 -0.0701,2.1199 0.66424,2.57378 0.73436,0.45386 1.33521,1.87682 1.33521,3.16215 0,1.28531 0.7433,3.08025 1.65179,3.98872 1.8,1.80001 2.09821,2.56774 2.09821,5.40179 0,1.03125 0.84375,1.875 1.875,1.875 1.1782,0 1.875,1.18875 1.875,3.19877 0,1.86799 0.53349,2.86905 1.28234,2.40624 0.70528,-0.43589 1.8892,0.94829 2.63091,3.07596 0.87126,2.49933 2.07644,3.74914 3.40515,3.53127 1.29685,-0.21265 1.93506,0.40927 1.7276,1.68351 -0.18095,1.11141 0.52217,2.72716 1.5625,3.59055 1.04032,0.8634 1.8915,2.69481 1.8915,4.06981 0,2.08049 0.31462,2.23888 1.875,0.94389 1.54279,-1.2804 1.875,-1.17604 1.875,0.58896 0,1.1798 1.125,2.43928 2.5,2.79885 1.375,0.35958 2.5,1.21084 2.5,1.89171 0,0.68088 0.96722,0.86679 2.1494,0.41315 1.18216,-0.45365 1.79154,-0.46695 1.35416,-0.0296 -1.16275,1.16275 3.88978,5.83674 5.63706,5.21474 0.81642,-0.29063 4.01116,0.79921 7.09943,2.42187 3.08829,1.62266 6.60391,2.95029 7.8125,2.95029 1.2086,0 2.19745,0.62634 2.19745,1.39187 0,0.83297 1.49357,1.17267 3.71949,0.84597 2.04572,-0.30024 4.01447,0.0577 4.375,0.79563 0.44166,0.90388 0.88848,0.84649 1.36965,-0.1759 0.56,-1.1899 1.26976,-1.1899 3.28832,0 1.62329,0.9569 2.74353,1.05569 3.03263,0.26743 0.26886,-0.73309 4.33667,-1.07994 9.83667,-0.83875 5.5119,0.24171 9.37824,-0.0889 9.37824,-0.80199 0,-0.66729 1.54688,-1.66365 3.4375,-2.21415 3.31011,-0.96382 4.60764,-1.18291 9.38724,-1.58504 1.20985,-0.10175 3.13831,-1.28126 4.28547,-2.62103 1.14715,-1.33979 2.5479,-2.15034 3.11277,-1.80124 0.56486,0.34911 1.02702,0.039 1.02702,-0.68903 0,-0.72807 1.125,-1.32377 2.5,-1.32377 1.375,0 2.50356,-0.42188 2.5079,-0.9375 0.0131,-1.56174 7.96441,-5.76818 10.3046,-5.45144 1.39003,0.18815 2.1875,-0.53271 2.1875,-1.97735 0,-1.33439 1.58198,-2.97369 3.82995,-3.96874 2.5316,-1.1206 3.59025,-2.31993 3.12288,-3.53791 -0.47355,-1.23406 0.53315,-2.31075 3.04816,-3.26006 2.06538,-0.7796 4.07559,-2.42676 4.46712,-3.66038 0.39154,-1.23361 1.23388,-1.92031 1.87189,-1.526 0.638,0.3943 1.16,-0.49393 1.16,-1.97387 0,-1.62444 0.97434,-2.9456 2.4586,-3.33374 1.35224,-0.35361 2.81604,-1.76912 3.25291,-3.14557 0.43687,-1.37645 2.00237,-3.89204 3.4789,-5.59019 1.47653,-1.69815 2.68459,-3.58675 2.68459,-4.19688 0,-0.61012 1.00135,-2.27881 2.22521,-3.70818 1.22388,-1.42938 1.94645,-3.04993 1.60573,-3.60123 -0.34071,-0.55129 0.57081,-2.28 2.02564,-3.84156 1.45481,-1.56156 2.7844,-4.10809 2.95465,-5.65894 0.17023,-1.55086 0.95525,-4.02629 1.74446,-5.50094 0.7892,-1.47466 1.09446,-3.23206 0.67835,-3.90536 -0.41613,-0.67323 -0.23495,-1.22411 0.4026,-1.22411 0.63756,0 1.47821,-2.37853 1.86813,-5.28562 0.38993,-2.90709 1.30774,-5.48522 2.03959,-5.72917 1.85936,-0.61979 1.6695,-3.96381 -0.23186,-4.0839 -1.2417,-0.0784 -1.2401,-0.22866 0.008,-0.73176 0.86366,-0.34819 1.25234,-1.14754 0.86372,-1.77631 -0.38831,-0.62878 -0.22659,-1.14324 0.35967,-1.14324 0.58625,0 1.86711,-3.51563 2.84631,-7.8125 3.00363,-13.18001 1.0302,-74.6875 -2.39628,-74.6875 -0.44521,0 -0.59491,-2.25 -0.33266,-5 0.37713,-3.95459 0.0574,-5 -1.52946,-5 -1.3204,0 -2.05559,-1.17519 -2.15049,-3.4375 -0.16046,-3.82566 -0.19006,-4.01981 -1.61956,-10.625 -0.55796,-2.57813 -1.43637,-4.6875 -1.95202,-4.6875 -0.51565,0 -0.65112,-1.49835 -0.30104,-3.32966 0.50011,-2.6162 0.22759,-3.17276 -1.27181,-2.59739 -1.46013,0.5603 -2.06664,-0.44802 -2.58239,-4.29319 -0.37073,-2.76402 -1.84516,-6.27208 -3.27653,-7.79568 -1.43135,-1.52362 -2.60246,-3.43708 -2.60246,-4.25214 0,-0.81507 -0.5625,-1.48194 -1.25,-1.48194 -0.6875,0 -1.25,-1.16517 -1.25,-2.58929 0,-1.4241 -0.84375,-3.43304 -1.875,-4.46429 -1.03125,-1.03125 -1.875,-2.98447 -1.875,-4.34051 0,-1.65469 -0.71939,-2.34471 -2.1875,-2.09821 -1.44176,0.24209 -2.31943,-0.55914 -2.5745,-2.35025 -0.21285,-1.49465 -1.75973,-3.61699 -3.4375,-4.71631 -1.67778,-1.09933 -3.0505,-2.70828 -3.0505,-3.57545 0,-0.86717 -1.6875,-2.5735 -3.75,-3.79185 -2.0625,-1.21835 -3.75,-2.74588 -3.75,-3.39452 0,-0.64862 -0.58624,-1.17932 -1.30276,-1.17932 -1.50709,0 -2.34224,-0.6102 -9.94724,-7.26799 -3.09375,-2.70841 -7.5214,-5.33454 -9.83921,-5.83584 -2.56701,-0.5552 -4.45304,-1.82473 -4.82524,-3.24801 -0.40472,-1.5477 -2.1471,-2.57686 -5.16079,-3.04832 -2.50236,-0.39148 -5.95601,-1.00798 -7.67476,-1.36999 -1.71875,-0.36203 -4.95313,-0.96088 -7.1875,-1.33079 -2.23438,-0.36991 -4.0625,-1.20674 -4.0625,-1.85959 0,-0.65286 -0.5625,-0.83937 -1.25,-0.41447 -0.6875,0.4249 -1.25,0.17685 -1.25,-0.55123 0,-0.72807 -1.40625,-1.32377 -3.125,-1.32377 -1.71875,0 -3.125,0.42592 -3.125,0.94651 0,0.52058 -2.516,0.7464 -5.59111,0.50183 -3.92276,-0.31199 -6.18736,0.15156 -7.58929,1.55348 -1.099,1.099 -3.57478,1.99818 -5.50173,1.99818 -1.92696,0 -5.96489,0.91299 -8.97321,2.02888 -3.00831,1.11587 -6.39866,1.99874 -7.53411,1.96195 -1.13545,-0.0368 -2.34841,1.01895 -2.69548,2.34612 -0.41882,1.60161 -1.72122,2.41305 -3.87305,2.41305 -1.78311,0 -3.24202,0.5246 -3.24202,1.16576 0,0.64118 -1.125,1.52283 -2.5,1.95924 -1.375,0.43641 -2.5,1.47804 -2.5,2.31472 0,1.83979 -7.49534,6.51157 -9.6875,6.03813 -0.85938,-0.18559 -1.58028,0.39034 -1.602,1.27985 -0.0502,2.05306 -5.66156,8.4923 -7.40054,8.4923 -0.72049,0 -1.30996,0.71958 -1.30996,1.59905 0,0.87947 -1.125,2.4099 -2.5,3.40095 -1.375,0.99105 -2.5,3.08397 -2.5,4.65095 0,1.56697 -0.5625,2.84905 -1.25,2.84905 -2.14721,0 -6.38504,5.02023 -5.47746,6.48873 0.55622,0.89998 0.29221,1.04432 -0.74157,0.40541 -1.07298,-0.66314 -1.40575,-0.4163 -1.00352,0.74436 0.33097,0.95507 -1.0023,4.08785 -2.96284,6.96173 -1.96054,2.87386 -3.56461,5.82698 -3.56461,6.5625 0,0.73549 -0.62268,1.33727 -1.38374,1.33727 -0.76105,0 -1.05996,0.84375 -0.66422,1.875 0.39572,1.03125 0.17465,1.875 -0.49127,1.875 -0.66592,0 -1.21077,0.77487 -1.21077,1.72195 0,0.94706 -0.82576,2.40726 -1.83504,3.24489 -1.00927,0.83761 -1.79219,1.89086 -1.73981,2.34055 0.19875,1.70641 -1.75759,6.44261 -2.66118,6.44261 -0.51945,0 -1.3012,2.23096 -1.73722,4.9577 -0.59294,3.70806 -1.26335,4.77711 -2.65976,4.24126 -1.14211,-0.43827 -1.86699,0.007 -1.86699,1.14942 0,2.67895 -2.90458,7.89937 -4.35816,7.83296 -0.67823,-0.031 -1.97455,1.49053 -2.8807,3.38116 -0.90615,1.89062 -2.23954,3.4375 -2.96308,3.4375 -0.72355,0 -1.00275,0.8151 -0.62046,1.81134 0.46458,1.21065 0.0944,1.58084 -1.11626,1.11626 -1.1351,-0.43558 -1.81134,0.0824 -1.81134,1.38744 0,1.14537 -0.55779,1.73777 -1.23952,1.31644 -0.68174,-0.42134 -2.67606,0.67046 -4.43182,2.42622 -2.19095,2.19095 -4.54681,3.1923 -7.51047,3.1923 -2.375,0 -4.31819,0.47584 -4.31819,1.05742 0,1.18968 -8.40376,0.95549 -9.62755,-0.26829 -1.36261,-1.36263 -5.13591,-0.85902 -5.7946,0.77337 -0.40065,0.9929 -0.66645,0.81916 -0.72916,-0.47661 -0.0639,-1.31906 -1.97462,-2.52016 -5.41119,-3.40143 -2.92188,-0.74927 -6.94686,-2.7848 -8.94442,-4.52339 -4.13725,-3.60088 -4.67163,-3.73252 -6.74308,-1.66107 -0.99181,0.99181 -1.5,1.04006 -1.5,0.14242 0,-0.74666 -2.00245,-2.3078 -4.44989,-3.46918 -3.62861,-1.72188 -4.17711,-2.44028 -2.97195,-3.89243 0.81288,-0.97945 2.53408,-1.78081 3.82489,-1.78081 1.29082,0 2.34695,-0.5625 2.34695,-1.25 0,-0.6875 0.84375,-1.25 1.875,-1.25 1.03125,0 1.875,-0.5625 1.875,-1.25 0,-0.6875 1.125,-1.25 2.5,-1.25 1.375,0 2.5,-0.55608 2.5,-1.23571 0,-1.90203 4.11052,-6.26429 5.9028,-6.26429 0.87846,0 1.5972,-0.9375 1.5972,-2.08334 0,-1.14582 0.31534,-1.76799 0.70076,-1.38257 0.88679,0.8868 6.79924,-4.94844 6.79924,-6.71044 0,-0.722 1.03346,-2.80581 2.29659,-4.63069 1.26313,-1.82487 2.65172,-4.30234 3.08577,-5.50546 0.43405,-1.20313 1.65058,-2.1875 2.70341,-2.1875 1.05283,0 1.91423,-0.8614 1.91423,-1.91423 0,-1.05283 0.84375,-2.23801 1.875,-2.63373 1.06879,-0.41014 1.875,-2.27443 1.875,-4.33578 0,-1.98894 0.65625,-3.61626 1.45834,-3.61626 0.80207,0 1.08821,-0.37013 0.63583,-0.82249 -0.45236,-0.45237 -0.19598,-1.57737 0.56973,-2.5 0.76571,-0.92263 0.90146,-1.68612 0.30165,-1.69665 -0.5998,-0.01 -0.44287,-0.4324 0.34874,-0.9375 0.7916,-0.5051 1.72192,-2.71489 2.06738,-4.91065 0.34545,-2.19576 1.31425,-6.07132 2.15287,-8.61237 1.76495,-5.34784 1.14103,-38.94635 -0.74851,-40.30843 -0.63857,-0.4603 -1.22217,-1.39941 -1.2969,-2.08691 -0.31422,-2.89085 -2.1082,-6.875 -3.09569,-6.875 -0.58574,0 -0.7412,-0.84375 -0.34548,-1.875 0.39574,-1.03125 0.0969,-1.875 -0.66422,-1.875 -0.76106,0 -1.38374,-0.61629 -1.38374,-1.36954 0,-0.75325 -1.10838,-2.92611 -2.46306,-4.8286 -1.3547,-1.90247 -2.12782,-3.79432 -1.71805,-4.20408 0.40977,-0.40977 -0.98304,-2.1991 -3.09512,-3.9763 -2.11208,-1.7772 -4.16078,-4.24152 -4.55267,-5.47624 -0.39189,-1.23473 -2.10945,-2.99258 -3.81681,-3.90633 -1.70737,-0.91375 -3.10429,-2.47023 -3.10429,-3.45887 0,-1.08424 -0.74403,-1.512 -1.875,-1.078 -1.03125,0.39572 -1.875,0.31196 -1.875,-0.18613 0,-0.4981 -1.58184,-1.60582 -3.5152,-2.46161 -1.93336,-0.85579 -4.68598,-2.64673 -6.11694,-3.97986 -1.43096,-1.33315 -2.94286,-2.08276 -3.3598,-1.66584 -0.41693,0.41694 -0.75806,0.1609 -0.75806,-0.56898 0,-0.72987 -2.10938,-1.615 -4.6875,-1.96696 -2.57813,-0.35195 -8.90625,-1.30322 -14.0625,-2.11395 -11.57846,-1.82048 -39.49788,-1.86298 -44.22083,-0.0674 -1.91893,0.72957 -3.99826,1.01173 -4.62073,0.62702 -1.54509,-0.95486 -16.15844,2.00467 -16.15844,3.2725 0,0.55858 -1.15209,0.79373 -2.56019,0.52255 -1.42401,-0.27425 -3.64292,0.5897 -5,1.94678 -1.3419,1.3419 -3.76212,2.43981 -5.37829,2.43981 -4.54009,0 -11.25955,2.68069 -13.0699,5.21419 -0.89836,1.2572 -2.6809,2.28581 -3.9612,2.28581 -2.83995,0 -10.28195,3.79122 -11.65503,5.9375 -0.54979,0.85937 -1.58978,1.5625 -2.31109,1.5625 -0.72131,0 -3.25471,0.92212 -5.62979,2.04917 -3.08788,1.4653 -4.10006,2.62283 -3.55235,4.0625 0.61384,1.6135 0.45336,1.70303 -0.8081,0.45083 -2.11477,-2.09874 -3.57456,-1.9711 -3.57456,0.31251 0,1.03125 -0.70844,1.875 -1.57431,1.875 -0.86588,0 -2.2769,1.125 -3.1356,2.5 -0.8587,1.375 -2.32994,2.5 -3.26943,2.5 -2.68681,0 -2.15215,6.44966 0.59419,7.16785 2.32567,0.60817 4.37769,4.64185 3.82541,7.51965 -0.16491,0.85937 0.2873,1.5625 1.00494,1.5625 0.71764,0 1.32269,1.26562 1.34455,2.8125 0.0454,3.20876 2.68129,7.1875 4.76174,7.1875 0.77049,0 1.72985,1.54687 2.13192,3.4375 0.40208,1.89062 1.5378,4.93054 2.52381,6.75536 0.98603,1.82483 1.79278,4.21545 1.79278,5.3125 0,1.09705 0.51887,1.99464 1.15306,1.99464 0.63418,0 1.8028,1.96875 2.59694,4.375 0.79414,2.40625 1.96276,4.375 2.59694,4.375 0.63418,0 1.15306,1.34527 1.15306,2.98949 0,3.49222 3.82389,4.93324 9.8779,3.72244 3.70716,-0.74144 5.48944,-2.96193 2.37737,-2.96193 -0.8221,0 1.16619,-1.6875 4.41842,-3.75 3.25222,-2.0625 6.73735,-3.75 7.74472,-3.75 1.00738,0 1.83159,-0.5957 1.83159,-1.32377 0,-0.72808 0.50356,-1.01255 1.11902,-0.63218 0.61545,0.38038 1.44155,-0.14892 1.83577,-1.17622 0.39421,-1.02731 1.82621,-1.86783 3.18221,-1.86783 1.356,0 2.8131,-0.5625 3.238,-1.25 0.4249,-0.6875 1.86985,-1.25 3.211,-1.25 1.34116,0 3.40173,-1.125 4.57904,-2.5 1.17731,-1.375 2.86693,-2.5 3.75472,-2.5 0.88779,0 2.5909,-0.52144 3.7847,-1.15875 3.08774,-1.64841 6.79868,-2.89783 9.47289,-3.18936 1.2663,-0.13807 2.71751,-0.92277 3.22494,-1.74379 0.50742,-0.82103 1.86198,-1.13229 3.01015,-0.6917 1.17531,0.45101 2.08756,0.19639 2.08756,-0.58266 0,-0.76107 1.6875,-1.38374 3.75,-1.38374 2.0625,0 3.74976,-0.42188 3.74949,-0.9375 -2.9e-4,-0.51563 4.92158,-0.83272 10.9375,-0.70468 6.0159,0.12806 13.60988,0.26868 16.87551,0.3125 4.58708,0.0615 5.9375,0.53654 5.9375,2.08842 0,1.27198 0.6877,1.74483 1.875,1.28922 1.03125,-0.39572 1.875,-0.17465 1.875,0.49126 0,0.66593 0.55714,1.21078 1.23807,1.21078 2.96053,0 13.49027,5.50349 12.99568,6.79234 -0.29979,0.78124 0.66404,2.71826 2.14184,4.3045 1.4778,1.58623 2.68691,4.23836 2.68691,5.89361 0,1.65525 0.39476,3.00955 0.87726,3.00955 0.48249,0 0.62044,1.74981 0.30655,3.88849 -0.35325,2.40682 0.0559,4.27571 1.07361,4.90472 1.3337,0.82428 1.34402,1.3781 0.0546,2.93177 -0.87436,1.05353 -1.22686,2.50265 -0.78335,3.22027 0.44351,0.71761 0.21069,1.30475 -0.51739,1.30475 -0.72807,0 -1.32377,0.85005 -1.32377,1.889 0,2.87035 -5.43775,13.03765 -6.99377,13.07668 -0.75282,0.0189 -2.38687,1.15932 -3.63123,2.53432 -1.24437,1.375 -3.58154,2.5 -5.19374,2.5 -1.95105,0 -2.93766,0.7315 -2.9504,2.1875 -0.0165,1.88765 -0.20091,1.93049 -1.34516,0.3125 -0.99789,-1.41101 -1.48292,-1.48835 -1.96003,-0.3125 -0.34871,0.85938 -1.43089,1.5625 -2.40484,1.5625 -0.97396,0 -1.77083,0.5625 -1.77083,1.25 0,0.6875 -1.93555,1.25 -4.30123,1.25 -2.36567,0 -4.63369,0.53794 -5.04004,1.19541 -0.40633,0.65748 -1.50763,0.90038 -2.44732,0.53978 -0.9397,-0.36059 -2.0647,-0.0794 -2.5,0.625 -0.43531,0.70435 -1.61721,0.96376 -2.62645,0.57649 -1.00922,-0.38729 -1.83413,-0.22209 -1.83309,0.36708 10e-4,0.58919 -7.4521,0.75292 -16.5625,0.36385 -9.30805,-0.3975 -16.89886,-0.21468 -17.32792,0.41732 -0.41995,0.61857 -1.1203,0.19498 -1.55634,-0.94132 -0.51438,-1.34042 -1.61496,-1.80505 -3.13385,-1.32296 -1.28759,0.40866 -3.8959,0.15186 -5.79626,-0.57065 -6.76883,-2.5735 -10.15364,1.41834 -5.72618,6.75309 1.10006,1.3255 1.18555,1.99691 0.25423,1.99691 -2.32677,0 -1.57444,2.49226 0.78445,2.59869 1.3068,0.059 1.55842,0.35251 0.625,0.72916 -1.8553,0.74861 -2.11173,4.17215 -0.31254,4.17215 0.6875,0 1.25,1.03125 1.25,2.29166 0,1.26043 0.4147,2.70638 0.92156,3.21323 0.50685,0.50686 0.98368,1.58498 1.0596,2.39584 0.0759,0.81085 0.22373,2.51882 0.32845,3.79551 0.1319,1.60814 0.82072,2.07935 2.24219,1.53388 1.68918,-0.6482 1.78138,-0.46151 0.52174,1.05628 -1.5695,1.89112 -0.73641,6.9636 1.14367,6.9636 0.5768,0 0.74782,1.15072 0.38003,2.55716 -0.41966,1.6048 0.16007,3.16319 1.55664,4.18438 1.22395,0.89497 2.34558,3.25987 2.49252,5.25533 0.44265,6.01114 2.07,12.98933 3.19071,13.68197 0.57954,0.35817 0.73684,1.47696 0.34956,2.4862 -0.43906,1.14416 0.0521,1.83496 1.30459,1.83496 1.14685,0 2.00874,1.0288 2.00874,2.39776 0,4.05133 1.40677,6.35224 3.88374,6.35224 1.30144,0 2.36626,-0.48564 2.36626,-1.0792 0,-3.74463 47.69821,-6.39518 49.93567,-2.77488 0.48907,0.79132 1.78512,1.09495 2.88012,0.67477 1.16552,-0.44725 3.06742,0.31252 4.58756,1.83266 1.42816,1.42816 3.35291,2.59665 4.27722,2.59665 2.09905,0 8.31943,5.24587 8.31943,7.01607 0,0.72132 1.40625,2.06408 3.125,2.98393 1.71875,0.91985 3.125,2.7024 3.125,3.96122 0,1.25883 0.5625,2.28878 1.25,2.28878 0.6875,0 1.25,-0.5957 1.25,-1.32378 0,-0.72807 0.62255,-0.93901 1.38345,-0.46875 0.96484,0.5963 0.87027,1.18599 -0.3125,1.94878 -1.34276,0.86597 -1.369,1.30531 -0.12604,2.1096 3.03966,1.96689 5.47725,15.33561 5.09486,27.9422 -0.21257,7.00815 -0.8531,11.78232 -1.52505,11.36704 -0.6474,-0.40013 -0.8477,0.47262 -0.45397,1.9782 0.3875,1.48182 0.19486,3.00922 -0.4281,3.39424 -0.62296,0.38501 -1.13265,2.07307 -1.13265,3.75124 0,1.67818 -0.5957,3.05123 -1.32378,3.05123 -0.72807,0 -0.97612,0.5625 -0.55122,1.25 0.4249,0.6875 0.17685,1.25 -0.55123,1.25 -0.72807,0 -1.32377,0.57771 -1.32377,1.28379 0,3.01446 -19.5308,22.19467 -23.73763,23.31152 -1.71193,0.4545 -3.86666,1.5804 -4.78827,2.50202 -0.9216,0.92161 -2.15394,1.38006 -2.7385,1.01877 -0.58458,-0.36129 -1.40099,-0.10975 -1.81426,0.55891 -0.41327,0.6687 -1.57714,0.89894 -2.58638,0.51167 -1.00922,-0.38729 -1.83496,-0.10327 -1.83496,0.63116 0,1.55912 -11.41256,5.18216 -16.32383,5.18216 -1.85353,0 -4.09241,0.87037 -4.97527,1.93416 -0.88288,1.0638 -1.93613,1.42535 -2.34056,0.80346 -0.41465,-0.6376 -6.59582,-0.79968 -14.17334,-0.37167 -7.3909,0.41747 -13.43777,0.33717 -13.4375,-0.17845 2.7e-4,-0.51563 -1.687,-0.9375 -3.7495,-0.9375 -2.0625,0 -3.75,0.60267 -3.75,1.33929 0,0.7366 -0.88392,0.45535 -1.96429,-0.625 -1.18629,-1.18633 -4.12745,-1.96429 -7.42619,-1.96429 -3.00408,0 -5.78747,-0.52671 -6.18533,-1.17046 -0.39786,-0.64375 -1.69668,-1.10338 -2.88627,-1.0214 -4.09356,0.28211 -9.03789,-1.60907 -9.03789,-3.45695 0,-1.1192 -1.1828,-1.85119 -2.99126,-1.85119 -1.6452,0 -3.31504,-0.84375 -3.71078,-1.875 -0.39572,-1.03125 -1.5809,-1.875 -2.63374,-1.875 -1.05282,0 -1.91422,-0.84375 -1.91422,-1.875 0,-2.27039 -2.04392,-2.48896 -2.92215,-0.3125 -0.3677,0.91126 -0.67161,0.62563 -0.72916,-0.68534 -0.0565,-1.28764 -1.83406,-3.00211 -4.16119,-4.01357 -2.23438,-0.97115 -3.61845,-1.78775 -3.07571,-1.81467 0.54272,-0.0269 0.26147,-0.83363 -0.625,-1.79272 -0.88649,-0.95909 -2.03367,-1.48839 -2.54929,-1.17623 -0.51563,0.31217 -0.9375,0.01 -0.9375,-0.67197 0,-0.68174 -1.26563,-1.6392 -2.8125,-2.12768 -3.17265,-1.00186 -8.43365,-6.59455 -8.43597,-8.96782 -8.4e-4,-0.85938 -0.61449,-1.5625 -1.36367,-1.5625 -1.70929,0 -6.04059,-5.09891 -6.09627,-7.17669 -0.0229,-0.85342 -2.01034,-4.13089 -4.41659,-7.28324 -2.40625,-3.15236 -4.375,-6.28417 -4.375,-6.95958 0,-0.67542 -0.5625,-0.88039 -1.25,-0.45549 -0.6875,0.4249 -1.25,-0.10438 -1.25,-1.17623 0,-1.07182 -0.51781,-1.94877 -1.15067,-1.94877 -0.63288,0 -1.52133,-1.6875 -1.97433,-3.75 -0.453,-2.0625 -1.34145,-3.75 -1.97433,-3.75 -0.63286,0 -1.15067,-1.125 -1.15067,-2.5 0,-1.375 -0.5625,-2.5 -1.25,-2.5 -0.6875,0 -1.25,-1.40625 -1.25,-3.125 0,-1.71875 -0.57456,-3.125 -1.2768,-3.125 -1.48751,0 -2.9153,-3.28136 -5.0311,-11.5625 -1.02156,-3.99837 -2.17836,-5.94375 -3.54205,-5.95664 -1.72334,-0.0163 -1.7531,-0.19116 -0.19975,-1.17368 1.57463,-0.99601 1.53171,-1.47895 -0.3125,-3.51679 -1.17579,-1.29924 -2.1378,-3.18983 -2.1378,-4.20132 0,-1.01148 -0.51724,-2.37344 -1.1494,-3.02657 -0.63217,-0.65313 -1.47021,-4.14644 -1.8623,-7.76293 -1.20345,-11.10017 -2.26576,-16.54957 -3.22616,-16.54957 -0.5051,0 -0.75512,-1.48709 -0.5556,-3.30464 0.19952,-1.81755 -0.42192,-4.08931 -1.38096,-5.04836 -1.11516,-1.11515 -1.47687,-3.07809 -1.0034,-5.44536 0.62453,-3.12273 0.34628,-3.70164 -1.77921,-3.70164 -2.24566,0 -2.55421,0.91711 -2.8387,8.4375 -0.78718,20.80979 0.12463,43.31144 2.05605,50.73914 0.86549,3.3284 1.30413,6.75391 0.97477,7.61224 -0.32938,0.85832 0.29711,2.30418 1.3922,3.21301 1.46848,1.21875 1.59965,1.89433 0.49973,2.57411 -0.9313,0.57557 -1.11418,1.79051 -0.48702,3.23535 0.55236,1.2725 0.88802,3.0294 0.74591,3.9042 -0.14211,0.8748 0.61293,2.46185 1.67785,3.52679 1.15581,1.1558 1.93624,4.1315 1.93624,7.38266 0,3.3608 0.77784,6.22426 2.03125,7.47767 1.11719,1.11719 2.03125,3.40738 2.03125,5.08929 0,1.76137 0.72879,3.05804 1.71875,3.05804 0.94531,0 1.80204,0.98438 1.90382,2.1875 0.43724,5.16793 0.63204,6.2051 2.12533,11.31594 0.8643,2.95814 2.6668,6.47376 4.00554,7.8125 1.50651,1.50651 1.83864,2.44991 0.87156,2.47565 -0.85938,0.0229 -0.29688,1.09741 1.25,2.38786 1.54687,1.29045 2.8125,3.26751 2.8125,4.39346 0,1.12595 1.96875,5.12483 4.375,8.8864 2.40625,3.76158 4.375,7.70525 4.375,8.76373 0,1.05847 0.522,1.60189 1.16,1.20759 0.63801,-0.39432 1.51966,0.41623 1.95924,1.80122 0.43957,1.38499 1.32382,2.51815 1.965,2.51815 0.64116,0 1.16576,1.14966 1.16576,2.5548 0,1.72828 0.6981,2.43596 2.15784,2.1875 1.43996,-0.2451 2.16771,0.46441 2.1875,2.1327 0.0164,1.375 0.87341,2.51486 1.90466,2.53304 3.09774,0.0546 4.63797,1.59431 5.39844,5.39667 0.55118,2.7559 1.59764,3.782 4.43592,4.34967 2.23424,0.44685 4.03901,1.76515 4.52869,3.30797 0.44776,1.41079 2.46176,3.4171 4.47554,4.45846 2.01377,1.04137 3.66141,2.78288 3.66141,3.87003 0,1.12381 0.712,1.70341 1.65025,1.34337 0.90764,-0.34828 3.97607,1.51434 6.81876,4.13918 2.84269,2.62485 6.31883,5.13754 7.72475,5.58376 1.40593,0.44623 2.55624,1.26403 2.55624,1.81733 0,0.5533 2.23096,1.36275 4.9577,1.79877 3.54389,0.56669 4.76638,1.29134 4.2868,2.54106 -0.65162,1.69815 3.00891,3.07297 10.50269,3.94458 1.57971,0.18375 3.69596,1.01775 4.70278,1.85334 1.00684,0.8356 3.65185,1.73082 5.87782,1.98938 2.22596,0.25858 4.23471,1.02774 4.46387,1.70927 0.22918,0.68151 2.76043,1.30567 5.625,1.38701 2.86459,0.0814 6.89584,0.55859 8.95834,1.06054 2.0625,0.50195 11.2241,0.85727 20.3591,0.78961 13.30795,-0.0986 16.84449,-0.4957 17.79336,-1.99804 z M 844.39234,310.57402 c 1.3677,-1.23775 2.28593,-1.4888 2.28593,-0.625 0,0.79406 0.84375,1.44374 1.875,1.44374 1.03125,0 1.875,-0.76117 1.875,-1.69151 0,-1.27603 1.53162,-1.54434 6.23553,-1.09235 3.42953,0.32954 7.82715,-0.0601 9.77246,-0.86589 3.09195,-1.28073 6.35545,-1.92223 12.50328,-2.45773 0.89995,-0.0784 1.38017,-0.5644 1.06714,-1.08002 -0.31301,-0.51563 2.21506,-0.99583 5.61795,-1.06713 4.88048,-0.10225 6.59634,-0.71392 8.12505,-2.89646 1.06589,-1.52176 2.68236,-2.4812 3.59218,-2.13207 2.27308,0.87226 9.52385,-1.86838 11.98303,-4.52934 1.11189,-1.20313 3.22127,-2.1875 4.6875,-2.1875 1.46623,0 2.66588,-0.53701 2.66588,-1.19336 0,-0.65634 1.97666,-1.56418 4.39259,-2.01742 2.41592,-0.45322 4.93006,-1.74433 5.58698,-2.86913 0.65693,-1.1248 1.21152,-1.54735 1.23242,-0.93902 0.0209,0.60834 1.14395,-0.2999 2.49565,-2.0183 1.35168,-1.71841 4.16418,-3.83126 6.25,-4.69522 2.0858,-0.86396 3.79236,-2.34636 3.79236,-3.2942 0,-0.94784 0.84375,-1.72335 1.875,-1.72335 1.03125,0 1.875,-0.5625 1.875,-1.25 0,-0.6875 0.89641,-1.25 1.99202,-1.25 1.09562,0 2.28622,-1.125 2.64579,-2.5 0.35958,-1.375 1.39871,-2.5 2.3092,-2.5 5.46603,0 3.33049,-9.50801 -3.1678,-14.10394 -3.12395,-2.20942 -4.66462,-4.1417 -4.22201,-5.29512 0.44428,-1.15778 -0.43761,-2.24755 -2.4326,-3.00604 -1.99675,-0.75916 -3.67071,-2.82959 -4.6246,-5.7199 -0.92826,-2.81267 -2.63331,-4.96281 -4.49753,-5.67159 -1.80551,-0.68645 -3.00247,-2.15051 -3.00247,-3.67247 0,-1.39202 -0.51843,-2.53094 -1.15205,-2.53094 -0.63362,0 -2.743,-2.51071 -4.6875,-5.57936 -1.9445,-3.06865 -4.23858,-5.5999 -5.09795,-5.625 -0.85938,-0.0251 -1.5625,-0.60814 -1.5625,-1.29564 0,-0.6875 -0.90392,-1.25 -2.00874,-1.25 -1.27199,0 -1.74483,0.6877 -1.28922,1.875 0.42608,1.11039 0.0136,1.875 -1.0115,1.875 -0.95205,0 -2.47795,1.6875 -3.3909,3.75 -0.93516,2.11266 -2.61825,3.75 -3.85478,3.75 -1.20717,0 -2.19486,0.52962 -2.19486,1.17694 0,1.44925 -14.29294,12.57306 -16.15505,12.57306 -0.73972,0 -1.34495,0.81736 -1.34495,1.81635 0,0.999 -1.82813,2.60745 -4.0625,3.57434 -7.19781,3.11473 -10.21658,4.63565 -15.06014,7.58755 -2.6112,1.5914 -8.65807,3.6313 -13.4375,4.53311 -5.61254,1.05901 -8.68986,2.23264 -8.68986,3.31415 0,1.82274 -1.27851,1.90851 -24.96966,1.6752 -8.7786,-0.0865 -14.66863,-0.66544 -15.17955,-1.49213 -0.45918,-0.74296 -2.30095,-1.07058 -4.09283,-0.72805 -1.79187,0.34254 -3.25796,0.1383 -3.25796,-0.45386 0,-0.59216 -1.26563,-1.09575 -2.8125,-1.11907 -1.54688,-0.0234 -5.0625,-1.12924 -7.8125,-2.45759 -2.75,-1.32835 -5.70313,-2.43426 -6.5625,-2.45759 -0.85938,-0.0233 -1.5625,-0.88616 -1.5625,-1.91741 0,-1.60479 -1.35488,-2.14826 -4.46968,-1.79289 -0.39581,0.0451 -1.67956,-1.02467 -2.85277,-2.3774 -1.17321,-1.35271 -3.52124,-2.65529 -5.21783,-2.8946 -1.9306,-0.27231 -2.97061,-1.15207 -2.77971,-2.35138 0.18359,-1.15338 -1.27655,-2.51326 -3.66757,-3.41577 -2.18492,-0.82472 -3.61459,-1.85748 -3.17704,-2.29504 0.91562,-0.91562 -0.3795,-2.25572 -6.84866,-7.08648 -2.79172,-2.08468 -4.37045,-4.16149 -3.96555,-5.21664 0.3793,-0.98846 -0.45995,-2.35925 -1.92424,-3.14291 -1.42832,-0.76442 -2.59695,-2.55524 -2.59695,-3.9796 0,-1.82698 -0.57139,-2.3705 -1.93992,-1.84534 -1.12054,0.42999 -1.61485,0.21844 -1.1703,-0.50086 0.42328,-0.68489 -0.0861,-2.10098 -1.13197,-3.14685 -1.04587,-1.04588 -1.58406,-2.72906 -1.19596,-3.74042 0.38809,-1.01135 0.0829,-1.83882 -0.67811,-1.83882 -0.76106,0 -1.38374,-1.33737 -1.38374,-2.97195 0,-1.63456 -0.83756,-3.66705 -1.86124,-4.51663 -1.02367,-0.84958 -1.55299,-2.04346 -1.17622,-2.65306 0.37675,-0.6096 -0.19194,-1.10836 -1.26376,-1.10836 -1.59182,0 -1.94878,1.71727 -1.94878,9.375 0,5.15625 0.46508,9.375 1.03351,9.375 0.56843,0 0.77669,1.74981 0.4628,3.88849 -0.31389,2.13866 0.0536,4.27431 0.81661,4.7459 0.76303,0.47157 1.638,2.79987 1.94438,5.17401 0.30639,2.37412 1.15299,5.87816 1.88135,7.78675 0.72836,1.90857 1.60138,4.99816 1.94004,6.86574 0.33865,1.86757 1.15914,3.57672 1.8233,3.79811 0.66416,0.22139 0.89773,1.20992 0.51905,2.19676 -0.37868,0.98683 -0.0659,1.79424 0.69522,1.79424 0.76106,0 1.38374,0.87695 1.38374,1.94877 0,1.07183 0.5625,1.60113 1.25,1.17623 0.6875,-0.4249 1.25,0.3577 1.25,1.73911 0,1.38141 0.7087,2.96149 1.57489,3.51128 0.86618,0.54979 2.6816,3.10898 4.03425,5.68711 1.35265,2.57812 2.89396,4.6875 3.42511,4.6875 0.53116,0 0.96575,0.8614 0.96575,1.91422 0,1.05284 0.98437,2.26166 2.1875,2.68628 3.57155,1.2605 7.8125,5.66696 7.8125,8.11739 0,1.25516 0.7487,2.28211 1.66377,2.28211 0.91508,0 2.36423,1.26562 3.22034,2.8125 1.54212,2.78638 9.2126,8.4375 11.45257,8.4375 0.63982,0 1.16332,0.84375 1.16332,1.875 0,1.03125 1.05613,1.875 2.34695,1.875 1.29081,0 3.06274,0.86249 3.9376,1.91662 0.87486,1.05416 2.20936,1.69384 2.96556,1.42152 1.6866,-0.60738 8.24989,2.58157 8.24989,4.00844 0,1.21524 13.24437,4.72995 21.11765,5.60405 3.02096,0.33539 5.97409,1.35558 6.5625,2.26708 0.87151,1.35004 1.29804,1.30968 2.30071,-0.21771 0.95108,-1.4488 1.23521,-1.48944 1.25,-0.17876 0.0113,0.9912 0.79848,1.39717 1.89414,0.97672 1.03125,-0.39572 1.875,-0.17465 1.875,0.49127 0,2.06722 10.24576,1.37582 12.71407,-0.85797 z m -21.17398,-66.68126 c 0.8587,-1.375 2.3299,-2.5 3.26933,-2.5 1.01914,0 1.41223,-0.7709 0.97462,-1.91131 -0.52763,-1.37494 0.31181,-2.12037 2.99126,-2.65625 2.04859,-0.40972 3.7247,-1.12553 3.7247,-1.59068 0,-0.46516 2.54082,-3.45989 5.64626,-6.65495 3.10545,-3.19506 5.49608,-6.54105 5.3125,-7.43551 -0.18356,-0.89446 0.50999,-1.50528 1.54124,-1.35735 1.03125,0.14792 2.76673,-1.53958 3.85661,-3.75 1.14129,-2.31469 3.1182,-4.18691 4.6619,-4.41504 2.4959,-0.36884 7.73149,-6.15933 7.73149,-8.55094 0,-0.5836 -1.6875,-2.65382 -3.75,-4.60048 -2.0625,-1.94668 -3.75,-4.05423 -3.75,-4.68345 0,-0.62922 -0.83899,-1.14404 -1.86441,-1.14404 -1.02543,0 -2.56698,-1.125 -3.42568,-2.5 -0.8587,-1.375 -2.26972,-2.5 -3.1356,-2.5 -0.86587,0 -1.57431,-0.84375 -1.57431,-1.875 0,-1.03125 -0.48781,-1.875 -1.08401,-1.875 -0.59622,0 -5.37746,-4.30739 -10.625,-9.57196 -5.24755,-5.26459 -9.54099,-9.07693 -9.54099,-8.47188 0,0.60506 -0.87565,-0.15006 -1.94588,-1.67802 -1.07023,-1.52798 -2.78051,-2.77814 -3.80062,-2.77814 -2.53064,0 -9.2535,5.10441 -9.2535,7.02584 0,0.85563 -1.125,1.91275 -2.5,2.34916 -1.375,0.43641 -2.5,1.35824 -2.5,2.04852 0,1.98087 -2.99135,4.45437 -4.69866,3.88526 -0.85324,-0.28442 -1.55134,0.28633 -1.55134,1.26832 0,0.98199 -1.125,2.80354 -2.5,4.0479 -1.375,1.24436 -2.5,3.01904 -2.5,3.94374 0,0.92468 -0.60267,1.68126 -1.33929,1.68126 -1.69395,0 -4.08735,2.37587 -6.00727,5.9633 -0.82027,1.53269 -2.24711,2.7867 -3.17077,2.7867 -0.92366,0 -2.37539,1.68035 -3.2261,3.73411 -0.85068,2.05377 -2.04393,3.42681 -2.65164,3.05123 -0.60772,-0.37559 -1.10493,0.99991 -1.10493,3.05666 0,2.44795 0.75553,3.99355 2.1875,4.47499 1.20312,0.4045 3.59375,2.67692 5.3125,5.04982 1.71875,2.3729 3.63398,4.32985 4.25605,4.34878 1.42003,0.0433 10.74395,9.76423 10.74395,11.20154 0,0.58402 1.26562,1.41304 2.8125,1.84228 1.54687,0.42924 5.34375,3.54016 8.4375,6.91316 6.29089,6.85873 11.29507,8.2229 14.04009,3.82743 z"
       id="path4212"
       inkscape:connector-curvature="0" />
    <path
       style="fill:#008d8b"
       d="m 740.54232,756.37713 c -47.28694,-3.94173 -88.74804,-15.92693 -129.93804,-37.56132 -30.06799,-15.79273 -53.5335,-33.22154 -78.95551,-58.64355 -25.83765,-25.83765 -43.18104,-49.3169 -59.2965,-80.27482 -25.53308,-49.04924 -37.31371,-97.31622 -37.31371,-152.87968 0,-55.56346 11.78063,-103.83044 37.31371,-152.87968 16.11546,-30.95792 33.45885,-54.43717 59.2965,-80.27482 25.83765,-25.83765 49.3169,-43.18104 80.27482,-59.2965 49.04924,-25.53307 97.31622,-37.313705 152.87968,-37.313705 55.56346,0 103.83044,11.780635 152.87968,37.313705 30.95792,16.11546 54.43717,33.45885 80.27482,59.2965 25.83773,25.83765 43.18103,49.3169 59.29653,80.27482 25.5331,49.04924 37.3137,97.31622 37.3137,152.87968 0,74.79671 -22.7534,141.60286 -68.9692,202.5 -12.1837,16.05404 -42.24149,46.11177 -58.29553,58.29545 -48.96334,37.15907 -101.33041,58.86986 -160.625,66.59329 -18.59691,2.42235 -49.62558,3.3469 -66.13595,1.97063 z M 697.95573,646.39276 c 0.84177,-1.33274 1.18979,-1.40674 1.2034,-0.25586 0.0241,2.03717 8.53059,0.67299 10.96145,-1.75789 0.89653,-0.89651 2.43495,-1.32115 3.41873,-0.94364 0.98377,0.37751 4.87016,-0.7714 8.63641,-2.55311 3.76626,-1.78173 7.38489,-3.2395 8.04141,-3.2395 0.65652,0 1.48719,-0.76491 1.84594,-1.6998 0.35875,-0.93489 3.09585,-2.3151 6.08244,-3.06713 5.2967,-1.33372 10.5692,-5.73807 15.24292,-12.73307 1.14839,-1.71875 2.35657,-2.98649 2.68482,-2.81721 1.33764,0.68983 6.85502,-5.29768 6.85502,-7.43915 0,-1.30905 1.35065,-2.81904 3.125,-3.49364 1.8604,-0.70733 3.125,-2.17561 3.125,-3.62834 0,-1.34211 1.38118,-3.52665 3.06929,-4.85451 2.29677,-1.80665 3.37768,-4.32928 4.29457,-10.02264 0.67391,-4.18457 1.82398,-8.72699 2.55571,-10.09424 0.73174,-1.36726 1.33043,-3.9468 1.33043,-5.73232 0,-1.78553 0.75351,-3.53556 1.67447,-3.88898 2.12322,-0.81475 2.6911,-7.45192 2.69635,-31.51347 0.003,-12.94061 -0.4553,-19.39696 -1.41916,-20 -0.78285,-0.48978 -2.07289,-5.10925 -2.86677,-10.2655 -0.79388,-5.15625 -1.9815,-9.5625 -2.63915,-9.79166 -0.65766,-0.22918 -1.19574,-1.98144 -1.19574,-3.89393 0,-1.9125 -1.125,-4.90747 -2.5,-6.6555 -1.375,-1.74802 -2.5,-4.04913 -2.5,-5.11356 0,-1.06444 -1.60071,-4.65015 -3.55715,-7.96826 -3.12624,-5.30213 -3.33236,-6.24292 -1.70154,-7.76633 1.4887,-1.39065 3.11892,-1.46882 8.24465,-0.39532 3.51398,0.73594 9.76404,1.13766 13.88904,0.89271 25.08202,-1.48936 29.93,-2.47141 34.9232,-7.07435 2.43811,-2.24755 3.74634,-2.70417 6.65603,-2.32326 0.86857,0.11375 1.91313,-0.6634 2.32123,-1.7269 0.40812,-1.0635 1.79612,-1.93364 3.08447,-1.93364 1.37703,0 2.64683,-1.15914 3.08101,-2.8125 0.40621,-1.54688 3.21198,-4.76466 6.23504,-7.15065 3.25453,-2.56868 5.8087,-5.75973 6.26196,-7.8234 0.42102,-1.9169 1.29794,-3.1562 1.9487,-2.754 1.59606,0.98642 5.75486,-4.30156 6.57444,-8.35949 0.37004,-1.83226 1.73243,-3.55511 3.09253,-3.91078 1.46824,-0.38397 2.77051,-2.18108 3.28806,-4.53747 0.47134,-2.14593 1.39943,-3.90171 2.06244,-3.90171 0.66301,0 1.11418,-0.70313 1.00258,-1.5625 -0.49644,-3.82303 0.19204,-5.82115 1.79391,-5.20645 1.17391,0.45046 1.92792,-0.74823 2.43459,-3.87037 0.45218,-2.78652 1.988,-5.50938 4.00037,-7.09232 1.79653,-1.41314 2.98989,-3.28995 2.65193,-4.17069 -0.33798,-0.88073 0.42392,-1.87288 1.6931,-2.20478 1.26918,-0.3319 2.49588,-1.9342 2.72601,-3.56066 0.23011,-1.62648 1.26215,-2.98279 2.2934,-3.01404 1.03125,-0.0312 1.73437,-0.73438 1.5625,-1.5625 -0.17188,-0.82813 0.25,-1.50569 0.9375,-1.50569 1.55664,0 6.25,-4.60064 6.25,-6.12653 0,-1.42927 8.29774,-6.37347 10.69645,-6.37347 0.99195,0 1.80355,-0.5957 1.80355,-1.32377 0,-0.72808 0.5625,-0.97613 1.25,-0.55123 0.6875,0.4249 1.25861,0.0362 1.26914,-0.86373 0.0141,-1.2025 0.37066,-1.13922 1.34516,0.23873 0.99789,1.41101 1.48291,1.48835 1.96003,0.3125 0.82808,-2.04081 17.92567,-2.19983 17.92567,-0.16671 0,0.78037 1.10226,1.10754 2.5,0.74202 1.375,-0.35957 2.5,-0.1085 2.5,0.55779 0,0.66635 0.98437,1.09116 2.1875,0.94401 1.20312,-0.14714 4.15625,0.63924 6.5625,1.7475 2.40625,1.10828 3.93095,2.03705 3.38821,2.06396 -0.54272,0.0269 -0.26147,0.83364 0.625,1.79273 0.88649,0.95909 2.03366,1.48839 2.54929,1.17622 0.51562,-0.31216 0.9375,0.59063 0.9375,2.00621 0,1.41557 0.5625,2.57377 1.25,2.57377 0.6875,0 1.25,1.10735 1.25,2.46077 0,1.49037 0.6332,2.21778 1.6057,1.84461 1.09633,-0.42071 2.37787,2.20263 4.03984,8.26958 1.33877,4.88717 2.84164,9.1376 3.3397,9.44543 0.49807,0.30782 0.60382,1.34603 0.23501,2.30715 -0.36883,0.96111 0.35887,3.89622 1.61709,6.52247 1.98882,4.15124 2.28766,8.14619 2.28766,30.58243 0,22.40749 -0.27645,26.11275 -2.09842,28.125 -1.15414,1.27466 -2.15435,2.88006 -2.2227,3.56756 -0.54557,5.48755 -1.81619,10.79409 -2.71807,11.35148 -0.5972,0.36908 -1.08581,1.76287 -1.08581,3.0973 0,1.33442 -0.70312,2.2856 -1.5625,2.11372 -0.87309,-0.17461 -1.40044,0.65268 -1.1952,1.875 0.20201,1.20313 -0.21986,2.1875 -0.9375,2.1875 -0.71764,0 -1.3048,1.00389 -1.3048,2.23088 0,2.17388 -3.30362,6.71625 -10.34137,14.219 -1.90652,2.03247 -3.17137,4.17276 -2.81078,4.75618 0.36058,0.58344 -0.47017,0.76639 -1.84612,0.40658 -1.37595,-0.35983 -2.50173,-0.0579 -2.50173,0.6709 0,0.72881 -1.6875,2.32195 -3.75,3.5403 -2.0625,1.21835 -3.75,3.0314 -3.75,4.029 0,0.99761 -0.37142,1.44241 -0.82539,0.98845 -0.45395,-0.45396 -1.61085,0.29604 -2.57087,1.66666 -0.96003,1.37063 -2.79843,2.49205 -4.08534,2.49205 -1.2869,0 -3.22376,0.88393 -4.30411,1.96429 -1.08036,1.08035 -1.98218,1.50222 -2.00404,0.9375 -0.0219,-0.56474 -0.86562,0.0651 -1.875,1.39962 -1.00939,1.33453 -1.83525,1.7564 -1.83525,0.9375 0,-0.8189 -0.5625,-1.48891 -1.25,-1.48891 -0.6875,0 -1.25,0.84375 -1.25,1.875 0,1.22024 -1.22223,1.875 -3.5,1.875 -1.925,0 -4.16695,0.66695 -4.9821,1.4821 -1.03018,1.03018 -7.79016,1.45805 -22.16975,1.40322 -17.74145,-0.0676 -21.02611,-0.38514 -23.06414,-2.22954 -1.30706,-1.18288 -2.92722,-1.8103 -3.60035,-1.39429 -1.96147,1.21226 -7.68366,-1.51368 -7.68366,-3.66035 0,-1.0784 -0.70313,-1.81132 -1.5625,-1.6287 -0.85938,0.18261 -3.18014,-1.18844 -5.15726,-3.04679 -1.97711,-1.85835 -4.08649,-3.0749 -4.6875,-2.70346 -0.601,0.37145 -1.09274,-0.38779 -1.09274,-1.68719 0,-1.2994 -1.34411,-3.0819 -2.98693,-3.96111 -3.87832,-2.07561 -5.24208,-5.25546 -7.65196,-17.84193 -1.09065,-5.69632 -2.24755,-11.62259 -2.57087,-13.16946 -0.37832,-1.80996 -1.50055,-2.8125 -3.14829,-2.8125 -2.04186,0 -2.38966,0.53803 -1.71726,2.65654 0.516,1.6258 0.36336,2.36001 -0.39342,1.8923 -2.58888,-1.60003 -3.09305,22.49783 -0.9313,44.51366 0.18564,1.89062 0.40784,5.96875 0.49378,9.0625 0.12225,4.39951 0.61921,5.625 2.28125,5.625 1.65277,0 1.79166,0.33334 0.625,1.5 -2.02978,2.02977 -1.88873,3.5 0.33577,3.5 1.05924,0 1.55194,0.73964 1.16478,1.74856 -0.36904,0.96171 -0.0701,2.1199 0.66424,2.57378 0.73436,0.45386 1.33521,1.87682 1.33521,3.16215 0,1.28531 0.7433,3.08025 1.65179,3.98872 1.8,1.80001 2.09821,2.56774 2.09821,5.40179 0,1.03125 0.84375,1.875 1.875,1.875 1.1782,0 1.875,1.18875 1.875,3.19877 0,1.86799 0.53349,2.86905 1.28234,2.40624 0.70528,-0.43589 1.8892,0.94829 2.63091,3.07596 0.87126,2.49933 2.07644,3.74914 3.40515,3.53127 1.29685,-0.21265 1.93506,0.40927 1.7276,1.68351 -0.18095,1.11141 0.52217,2.72716 1.5625,3.59055 1.04032,0.8634 1.8915,2.69481 1.8915,4.06981 0,2.12078 0.29511,2.25508 1.94552,0.88535 1.53638,-1.27507 1.86498,-1.2828 1.5625,-0.0367 -0.21066,0.86785 0.74198,2.22869 2.11698,3.02409 1.375,0.7954 2.85899,1.94011 3.29775,2.54382 0.43875,0.6037 1.56375,0.65414 2.5,0.11213 0.93624,-0.54205 1.32725,-0.56724 0.86891,-0.056 -1.15557,1.28902 3.7741,5.9987 5.59896,5.34907 0.81642,-0.29062 4.01115,0.79922 7.09943,2.42188 3.08829,1.62266 6.60391,2.95029 7.8125,2.95029 1.2086,0 2.19745,0.62633 2.19745,1.39187 0,0.83296 1.49357,1.17266 3.71949,0.84596 2.04572,-0.30023 4.01447,0.0577 4.375,0.79564 0.44166,0.90388 0.88848,0.84649 1.36965,-0.1759 0.56,-1.1899 1.26976,-1.1899 3.28832,0 1.62329,0.9569 2.74353,1.05569 3.03263,0.26743 0.26886,-0.73309 4.33667,-1.07994 9.83667,-0.83875 5.5119,0.24171 9.37824,-0.0889 9.37824,-0.80199 0,-0.66729 1.54687,-1.66365 3.4375,-2.21415 3.31011,-0.96383 4.60764,-1.18291 9.38724,-1.58504 1.20985,-0.10175 3.13831,-1.28126 4.28547,-2.62104 1.14715,-1.33978 2.5479,-2.15033 3.11276,-1.80123 0.56487,0.34911 1.02703,0.039 1.02703,-0.68903 0,-0.72807 1.125,-1.32377 2.5,-1.32377 1.375,0 2.50356,-0.42188 2.5079,-0.9375 0.0131,-1.56174 7.96441,-5.76818 10.3046,-5.45144 1.39003,0.18815 2.1875,-0.53271 2.1875,-1.97735 0,-1.33439 1.58198,-2.97369 3.82995,-3.96874 2.5316,-1.1206 3.59025,-2.31994 3.12287,-3.53791 -0.47355,-1.23406 0.53315,-2.31075 3.04817,-3.26006 2.06538,-0.7796 4.07559,-2.42677 4.46712,-3.66038 0.39154,-1.23361 1.23388,-1.92031 1.87189,-1.526 0.638,0.3943 1.16,-0.49394 1.16,-1.97387 0,-1.62444 0.97434,-2.9456 2.4586,-3.33374 1.35224,-0.35361 2.83666,-1.84783 3.29872,-3.32048 0.46207,-1.47265 2.19987,-3.94565 3.86177,-5.49556 1.6619,-1.54991 2.72817,-3.29285 2.3695,-3.87319 -0.35868,-0.58034 0.48211,-2.27265 1.86841,-3.76066 1.3863,-1.48802 2.23005,-3.17552 1.875,-3.75 -0.35505,-0.57449 0.54475,-2.32216 1.99957,-3.88372 1.45482,-1.56157 2.7844,-4.10809 2.95465,-5.65894 0.17024,-1.55086 0.95525,-4.02629 1.74447,-5.50094 0.7892,-1.47466 1.09446,-3.23206 0.67835,-3.90536 -0.41613,-0.67327 -0.23495,-1.22415 0.4026,-1.22415 0.63756,0 1.47185,-2.33106 1.85399,-5.18015 0.38214,-2.84909 1.32737,-5.5711 2.10049,-6.04891 0.77314,-0.47783 1.13429,-2.36551 0.80257,-4.19485 -0.33173,-1.82935 -0.19391,-3.32609 0.30624,-3.32609 0.50016,0 1.71057,-3.51563 2.68977,-7.8125 3.00363,-13.18001 1.0302,-74.6875 -2.39627,-74.6875 -0.44522,0 -0.59492,-2.25 -0.33267,-5 0.37713,-3.95459 0.0574,-5 -1.52946,-5 -1.3204,0 -2.05559,-1.17519 -2.15049,-3.4375 -0.16046,-3.82566 -0.19006,-4.01981 -1.61956,-10.625 -0.55796,-2.57813 -1.43637,-4.6875 -1.95202,-4.6875 -0.51565,0 -0.65112,-1.49835 -0.30104,-3.32966 0.50011,-2.6162 0.22759,-3.17276 -1.27181,-2.59739 -1.46013,0.5603 -2.06664,-0.44802 -2.58239,-4.29319 -0.37073,-2.76402 -1.84516,-6.27208 -3.27653,-7.79568 -1.43135,-1.52362 -2.60246,-3.43708 -2.60246,-4.25214 0,-0.81507 -0.5625,-1.48194 -1.25,-1.48194 -0.6875,0 -1.25,-1.16517 -1.25,-2.58929 0,-1.4241 -0.84375,-3.43304 -1.875,-4.46429 -1.03125,-1.03125 -1.875,-2.98447 -1.875,-4.34051 0,-1.65469 -0.71939,-2.34471 -2.1875,-2.09821 -1.44176,0.24209 -2.31943,-0.55914 -2.5745,-2.35025 -0.21285,-1.49465 -1.75973,-3.61699 -3.4375,-4.71631 -1.67778,-1.09933 -3.0505,-2.70828 -3.0505,-3.57545 0,-0.86717 -1.6875,-2.5735 -3.75,-3.79185 -2.0625,-1.21835 -3.75,-2.74588 -3.75,-3.39452 0,-0.64862 -0.58624,-1.17932 -1.30276,-1.17932 -1.50709,0 -2.34224,-0.6102 -9.94724,-7.26799 -3.09375,-2.70841 -7.5214,-5.33454 -9.83921,-5.83584 -2.56701,-0.5552 -4.45304,-1.82473 -4.82524,-3.24801 -0.40472,-1.5477 -2.1471,-2.57686 -5.16079,-3.04832 -2.50236,-0.39148 -5.95601,-1.00798 -7.67476,-1.36999 -1.71875,-0.36203 -4.95313,-0.96088 -7.1875,-1.33079 -2.23438,-0.36991 -4.0625,-1.20674 -4.0625,-1.85959 0,-0.65286 -0.5625,-0.83937 -1.25,-0.41447 -0.6875,0.4249 -1.25,0.17685 -1.25,-0.55123 0,-0.72807 -1.40625,-1.32377 -3.125,-1.32377 -1.71875,0 -3.125,0.42592 -3.125,0.94651 0,0.52058 -2.516,0.7464 -5.59111,0.50183 -3.92276,-0.31199 -6.18736,0.15156 -7.58929,1.55348 -1.099,1.099 -3.57478,1.99818 -5.50173,1.99818 -1.92696,0 -5.96489,0.91299 -8.97321,2.02888 -3.00831,1.11587 -6.39866,1.99874 -7.53411,1.96195 -1.13545,-0.0368 -2.34841,1.01895 -2.69548,2.34612 -0.41882,1.60161 -1.72122,2.41305 -3.87305,2.41305 -1.78311,0 -3.24202,0.55179 -3.24202,1.22619 0,0.6744 -1.4398,1.58755 -3.19955,2.02922 -1.79597,0.45075 -2.94369,1.46982 -2.6163,2.323 0.65358,1.70319 -6.44492,6.42353 -8.87165,5.89944 -0.85937,-0.18559 -1.58027,0.39034 -1.602,1.27985 -0.0502,2.05306 -5.66156,8.4923 -7.40054,8.4923 -0.72049,0 -1.30996,0.71958 -1.30996,1.59905 0,0.87947 -1.125,2.4099 -2.5,3.40095 -1.375,0.99105 -2.5,3.08397 -2.5,4.65095 0,1.56697 -0.5625,2.84905 -1.25,2.84905 -2.14721,0 -6.38504,5.02023 -5.47746,6.48873 0.55622,0.89998 0.29221,1.04432 -0.74157,0.40541 -1.07298,-0.66314 -1.40575,-0.4163 -1.00352,0.74436 0.33097,0.95507 -1.0023,4.08785 -2.96284,6.96173 -1.96054,2.87386 -3.56461,5.82698 -3.56461,6.5625 0,0.73549 -0.62268,1.33727 -1.38374,1.33727 -0.76105,0 -1.05996,0.84375 -0.66422,1.875 0.39572,1.03125 0.17465,1.875 -0.49127,1.875 -0.66592,0 -1.21077,0.8614 -1.21077,1.91422 0,1.05284 -0.85371,2.24184 -1.89714,2.64224 -1.04342,0.4004 -1.82615,1.36711 -1.73939,2.14827 0.24417,2.19843 -1.54417,7.04527 -2.5995,7.04527 -0.51945,0 -1.3012,2.23096 -1.73722,4.9577 -0.59294,3.70806 -1.26335,4.77711 -2.65976,4.24126 -1.14211,-0.43827 -1.86699,0.007 -1.86699,1.14942 0,2.67895 -2.90458,7.89937 -4.35816,7.83296 -0.67823,-0.031 -1.97455,1.49053 -2.8807,3.38116 -0.90615,1.89062 -2.23954,3.4375 -2.96308,3.4375 -0.72355,0 -1.00275,0.8151 -0.62046,1.81134 0.46458,1.21065 0.0944,1.58084 -1.11626,1.11626 -1.1351,-0.43558 -1.81134,0.0824 -1.81134,1.38744 0,1.14537 -0.55779,1.73777 -1.23952,1.31644 -0.68174,-0.42134 -2.67606,0.67046 -4.43182,2.42622 -2.19095,2.19095 -4.54681,3.1923 -7.51047,3.1923 -2.375,0 -4.31819,0.47584 -4.31819,1.05742 0,1.18968 -8.40376,0.95549 -9.62755,-0.26829 -1.36261,-1.36263 -5.13591,-0.85902 -5.7946,0.77337 -0.40065,0.9929 -0.66645,0.81916 -0.72916,-0.47661 -0.0639,-1.31906 -1.97462,-2.52016 -5.41119,-3.40143 -2.92188,-0.74927 -6.94686,-2.7848 -8.94442,-4.52339 -4.13725,-3.60088 -4.67163,-3.73252 -6.74308,-1.66107 -0.99181,0.99181 -1.5,1.04006 -1.5,0.14242 0,-0.74666 -2.00245,-2.3078 -4.44989,-3.46918 -3.62861,-1.72188 -4.17711,-2.44028 -2.97195,-3.89243 0.81288,-0.97945 2.53408,-1.78081 3.82489,-1.78081 1.29082,0 2.34695,-0.5625 2.34695,-1.25 0,-0.6875 0.84375,-1.25 1.875,-1.25 1.03125,0 1.875,-0.5625 1.875,-1.25 0,-0.6875 1.125,-1.25 2.5,-1.25 1.375,0 2.5,-0.55608 2.5,-1.23571 0,-1.90203 4.11052,-6.26429 5.9028,-6.26429 0.87846,0 1.5972,-0.9375 1.5972,-2.08334 0,-1.14582 0.31534,-1.76799 0.70076,-1.38257 0.88679,0.8868 6.79924,-4.94844 6.79924,-6.71044 0,-0.722 1.03346,-2.80581 2.29659,-4.63069 1.26313,-1.82487 2.65172,-4.30234 3.08577,-5.50546 0.43405,-1.20313 1.65058,-2.1875 2.70341,-2.1875 1.05283,0 1.91423,-0.8614 1.91423,-1.91423 0,-1.05283 0.84375,-2.23801 1.875,-2.63373 1.06879,-0.41014 1.875,-2.27443 1.875,-4.33578 0,-1.98894 0.65625,-3.61626 1.45834,-3.61626 0.80207,0 1.08821,-0.37013 0.63583,-0.82249 -0.45236,-0.45237 -0.19598,-1.57737 0.56973,-2.5 0.76571,-0.92263 0.90146,-1.68612 0.30165,-1.69665 -0.5998,-0.01 -0.44287,-0.4324 0.34874,-0.9375 0.7916,-0.5051 1.72192,-2.71489 2.06738,-4.91065 0.34545,-2.19576 1.31425,-6.07132 2.15287,-8.61237 1.76495,-5.34784 1.14103,-38.94635 -0.74851,-40.30843 -0.63857,-0.4603 -1.22217,-1.39941 -1.2969,-2.08691 -0.31422,-2.89085 -2.1082,-6.875 -3.09569,-6.875 -0.58574,0 -0.7412,-0.84375 -0.34548,-1.875 0.39574,-1.03125 0.0969,-1.875 -0.66422,-1.875 -0.76106,0 -1.38374,-0.61629 -1.38374,-1.36954 0,-0.75325 -1.10838,-2.92611 -2.46306,-4.8286 -1.3547,-1.90247 -2.12782,-3.79432 -1.71805,-4.20408 0.40977,-0.40977 -0.98304,-2.1991 -3.09512,-3.9763 -2.11208,-1.7772 -4.16078,-4.24152 -4.55267,-5.47624 -0.39189,-1.23473 -2.10945,-2.99258 -3.81681,-3.90633 -1.70737,-0.91375 -3.10429,-2.47023 -3.10429,-3.45887 0,-1.08424 -0.74403,-1.512 -1.875,-1.078 -1.03125,0.39572 -1.875,0.31196 -1.875,-0.18613 0,-0.4981 -1.58184,-1.60582 -3.5152,-2.46161 -1.93336,-0.85579 -4.68598,-2.64673 -6.11694,-3.97986 -1.43096,-1.33315 -2.94286,-2.08276 -3.3598,-1.66584 -0.41693,0.41694 -0.75806,0.1609 -0.75806,-0.56898 0,-0.72987 -2.10938,-1.615 -4.6875,-1.96696 -2.57813,-0.35195 -8.90625,-1.30322 -14.0625,-2.11395 -11.57846,-1.82048 -39.49788,-1.86298 -44.22083,-0.0674 -1.91893,0.72957 -3.99826,1.01173 -4.62073,0.62702 -1.54509,-0.95486 -16.15844,2.00467 -16.15844,3.2725 0,0.55858 -1.15209,0.79373 -2.56019,0.52255 -1.42401,-0.27425 -3.64292,0.5897 -5,1.94678 -1.3419,1.3419 -3.76212,2.43981 -5.37829,2.43981 -4.54009,0 -11.25955,2.68069 -13.0699,5.21419 -0.89836,1.2572 -2.6809,2.28581 -3.9612,2.28581 -2.83995,0 -10.28195,3.79122 -11.65503,5.9375 -0.54979,0.85937 -1.58978,1.5625 -2.31109,1.5625 -0.72131,0 -3.25471,0.92212 -5.62979,2.04917 -3.08788,1.4653 -4.10006,2.62283 -3.55235,4.0625 0.61384,1.6135 0.45336,1.70303 -0.8081,0.45083 -2.11427,-2.09877 -3.57406,-1.97113 -3.57406,0.31248 0,1.03125 -0.70844,1.875 -1.57431,1.875 -0.86588,0 -2.2769,1.125 -3.1356,2.5 -0.8587,1.375 -2.32994,2.5 -3.26943,2.5 -2.68681,0 -2.15215,6.44966 0.59419,7.16785 2.32567,0.60817 4.37769,4.64185 3.82541,7.51965 -0.16491,0.85937 0.2873,1.5625 1.00494,1.5625 0.71764,0 1.32269,1.26562 1.34455,2.8125 0.0454,3.20876 2.68129,7.1875 4.76174,7.1875 0.77049,0 1.72985,1.54687 2.13192,3.4375 0.40208,1.89062 1.5378,4.93054 2.52381,6.75536 0.98603,1.82483 1.79278,4.21545 1.79278,5.3125 0,1.09705 0.51887,1.99464 1.15306,1.99464 0.63418,0 1.8028,1.96875 2.59694,4.375 0.79414,2.40625 1.96276,4.375 2.59694,4.375 0.63418,0 1.15306,1.34527 1.15306,2.98949 0,3.49222 3.82389,4.93324 9.8779,3.72244 3.70716,-0.74144 5.48944,-2.96193 2.37737,-2.96193 -0.8221,0 1.16619,-1.6875 4.41842,-3.75 3.25222,-2.0625 6.73735,-3.75 7.74472,-3.75 1.00738,0 1.83159,-0.5957 1.83159,-1.32377 0,-0.72808 0.50356,-1.01255 1.11902,-0.63218 0.61545,0.38038 1.44155,-0.14892 1.83577,-1.17622 0.39421,-1.02731 1.82621,-1.86783 3.18221,-1.86783 1.356,0 2.8131,-0.5625 3.238,-1.25 0.4249,-0.6875 1.86985,-1.25 3.211,-1.25 1.34116,0 3.40173,-1.125 4.57904,-2.5 1.17731,-1.375 2.86693,-2.5 3.75472,-2.5 0.88779,0 2.5909,-0.52144 3.7847,-1.15875 3.1416,-1.67716 6.81431,-2.90021 9.60703,-3.19925 1.34006,-0.14349 2.63265,-0.84942 2.87242,-1.56875 0.23978,-0.71931 1.53399,-1.02071 2.87603,-0.66976 1.34425,0.35152 2.44006,0.0113 2.44006,-0.7577 0,-0.76769 1.6875,-1.39579 3.75,-1.39579 2.0625,0 3.74976,-0.42188 3.74949,-0.9375 -2.9e-4,-0.51563 4.92158,-0.83272 10.9375,-0.70468 6.0159,0.12806 13.60988,0.26868 16.87551,0.3125 4.58708,0.0615 5.9375,0.53654 5.9375,2.08842 0,1.27198 0.6877,1.74483 1.875,1.28922 1.03125,-0.39572 1.875,-0.17465 1.875,0.49126 0,0.66593 0.55714,1.21078 1.23807,1.21078 2.96053,0 13.49027,5.50349 12.99568,6.79234 -0.29979,0.78124 0.66404,2.71826 2.14184,4.3045 1.4778,1.58623 2.68691,4.23836 2.68691,5.89361 0,1.65525 0.39476,3.00955 0.87726,3.00955 0.48249,0 0.62044,1.74981 0.30655,3.88849 -0.35325,2.40682 0.0559,4.27571 1.07361,4.90472 1.3337,0.82428 1.34402,1.3781 0.0546,2.93177 -0.87436,1.05353 -1.22686,2.50265 -0.78335,3.22027 0.44351,0.71761 0.21069,1.30475 -0.51739,1.30475 -0.72807,0 -1.32377,0.85005 -1.32377,1.889 0,2.87035 -5.43775,13.03765 -6.99377,13.07668 -0.75282,0.0189 -2.38687,1.15932 -3.63123,2.53432 -1.24437,1.375 -3.58154,2.5 -5.19374,2.5 -1.95105,0 -2.93766,0.7315 -2.9504,2.1875 -0.0165,1.88765 -0.20091,1.93049 -1.34516,0.3125 -0.99789,-1.41101 -1.48292,-1.48835 -1.96003,-0.3125 -0.34871,0.85938 -1.43089,1.5625 -2.40484,1.5625 -0.97396,0 -1.77083,0.5625 -1.77083,1.25 0,0.6875 -1.93555,1.25 -4.30123,1.25 -2.36567,0 -4.63369,0.53794 -5.04004,1.19541 -0.40633,0.65748 -1.50763,0.90038 -2.44732,0.53978 -0.9397,-0.36059 -2.0647,-0.0794 -2.5,0.625 -0.43531,0.70435 -1.61721,0.96376 -2.62645,0.57649 -1.00922,-0.38729 -1.83413,-0.22209 -1.83309,0.36708 10e-4,0.58919 -7.4521,0.75292 -16.5625,0.36385 -9.30805,-0.3975 -16.89886,-0.21468 -17.32792,0.41732 -0.41995,0.61857 -1.1203,0.19498 -1.55634,-0.94132 -0.51438,-1.34042 -1.61496,-1.80505 -3.13385,-1.32296 -1.28759,0.40866 -3.8959,0.15186 -5.79626,-0.57065 -6.76883,-2.5735 -10.15364,1.41834 -5.72618,6.75309 1.10006,1.3255 1.18555,1.99691 0.25423,1.99691 -2.32677,0 -1.57444,2.49226 0.78445,2.59869 1.3068,0.059 1.55842,0.35251 0.625,0.72916 -1.8553,0.74861 -2.11173,4.17215 -0.31254,4.17215 0.6875,0 1.25,1.03125 1.25,2.29166 0,1.26043 0.3741,2.66578 0.83134,3.123 0.45722,0.45724 0.99548,2.37104 1.19612,4.25288 0.20064,1.88185 0.89183,3.59722 1.53598,3.81194 0.64414,0.21471 0.90156,1.42135 0.57205,2.6814 -0.32951,1.26005 0.20761,3.0446 1.19361,3.96566 0.98599,0.92105 1.52423,2.70135 1.19607,3.95621 -0.34031,1.30133 0.35946,2.98069 1.6287,3.90879 1.22396,0.89497 2.34559,3.25987 2.49253,5.25534 0.44265,6.01113 2.07,12.98932 3.19071,13.68196 0.57954,0.35817 0.73684,1.47696 0.34956,2.4862 -0.43906,1.14416 0.0521,1.83496 1.30459,1.83496 1.14685,0 2.00874,1.0288 2.00874,2.39776 0,4.05133 1.40677,6.35224 3.88374,6.35224 1.30143,0 2.36626,-0.48564 2.36626,-1.0792 0,-3.74463 47.69821,-6.39517 49.93567,-2.77487 0.48907,0.79131 1.78512,1.09495 2.88012,0.67476 1.16552,-0.44725 3.06742,0.31252 4.58756,1.83266 1.42816,1.42816 3.35291,2.59665 4.27722,2.59665 2.09905,0 8.31943,5.24587 8.31943,7.01607 0,0.72132 1.40625,2.06408 3.125,2.98393 1.71875,0.91985 3.125,2.7024 3.125,3.96122 0,1.25883 0.5625,2.28878 1.25,2.28878 0.6875,0 1.25,-0.5957 1.25,-1.32377 0,-0.72808 0.62255,-0.93902 1.38345,-0.46875 0.96484,0.5963 0.87027,1.18598 -0.3125,1.94877 -1.34276,0.86598 -1.369,1.30531 -0.12604,2.1096 3.03966,1.96689 5.47725,15.33561 5.09486,27.9422 -0.21257,7.00815 -0.8531,11.78233 -1.52505,11.36704 -0.6474,-0.40013 -0.8477,0.47262 -0.45397,1.9782 0.3875,1.48182 0.19486,3.00922 -0.4281,3.39424 -0.62296,0.38501 -1.13265,2.07307 -1.13265,3.75125 0,1.67817 -0.5957,3.05122 -1.32378,3.05122 -0.72807,0 -0.97612,0.5625 -0.55122,1.25 0.4249,0.6875 0.17685,1.25 -0.55123,1.25 -0.72807,0 -1.32377,0.57771 -1.32377,1.28379 0,3.01446 -19.5308,22.19467 -23.73763,23.31152 -1.71193,0.4545 -3.86666,1.5804 -4.78827,2.50202 -0.9216,0.92161 -2.15394,1.38006 -2.7385,1.01877 -0.58458,-0.36129 -1.40099,-0.10975 -1.81426,0.55891 -0.41327,0.6687 -1.57714,0.89894 -2.58638,0.51167 -1.00922,-0.38729 -1.83496,-0.10327 -1.83496,0.63116 0,1.55912 -11.41256,5.18216 -16.32383,5.18216 -1.85353,0 -4.09241,0.87037 -4.97527,1.93416 -0.88288,1.0638 -1.93613,1.42535 -2.34056,0.80346 -0.41465,-0.6376 -6.59582,-0.79968 -14.17334,-0.37167 -7.3909,0.41747 -13.43777,0.33717 -13.4375,-0.17845 2.7e-4,-0.51563 -1.687,-0.9375 -3.7495,-0.9375 -2.0625,0 -3.75,0.60267 -3.75,1.33929 0,0.7366 -0.88392,0.45535 -1.96429,-0.625 -1.18629,-1.18633 -4.12745,-1.96429 -7.42619,-1.96429 -3.00408,0 -5.78747,-0.52671 -6.18533,-1.17046 -0.39786,-0.64375 -1.69668,-1.10338 -2.88627,-1.0214 -4.09356,0.28211 -9.03789,-1.60907 -9.03789,-3.45695 0,-1.1192 -1.1828,-1.85119 -2.99126,-1.85119 -1.6452,0 -3.31504,-0.84375 -3.71078,-1.875 -0.39572,-1.03125 -1.5809,-1.875 -2.63374,-1.875 -1.05282,0 -1.91422,-0.84375 -1.91422,-1.875 0,-2.27039 -2.04392,-2.48896 -2.92215,-0.3125 -0.3677,0.91126 -0.67161,0.62563 -0.72916,-0.68534 -0.0565,-1.28764 -1.83406,-3.00211 -4.16119,-4.01357 -2.23438,-0.97115 -3.61845,-1.78775 -3.07571,-1.81467 0.54272,-0.0269 0.26147,-0.83363 -0.625,-1.79272 -0.88649,-0.95909 -2.03367,-1.48839 -2.54929,-1.17623 -0.51563,0.31217 -0.9375,0.01 -0.9375,-0.67197 0,-0.68174 -1.26563,-1.63915 -2.8125,-2.12758 -3.20226,-1.01111 -6.75956,-4.71291 -7.85962,-8.1789 -0.41049,-1.29333 -1.47621,-2.35152 -2.36826,-2.35152 -0.89206,0 -2.96352,-2.42375 -4.60327,-5.3861 -5.05239,-9.12763 -10.71451,-17.08906 -11.55552,-16.24805 -0.44046,0.44045 -0.80083,-0.13669 -0.80083,-1.28251 0,-1.14584 -0.51781,-2.08334 -1.15067,-2.08334 -0.63288,0 -1.52133,-1.6875 -1.97433,-3.75 -0.453,-2.0625 -1.34145,-3.75 -1.97433,-3.75 -0.63286,0 -1.15067,-1.125 -1.15067,-2.5 0,-1.375 -0.5625,-2.5 -1.25,-2.5 -0.6875,0 -1.25,-1.40625 -1.25,-3.125 0,-1.71875 -0.57456,-3.125 -1.2768,-3.125 -1.48751,0 -2.9153,-3.28136 -5.0311,-11.5625 -1.02156,-3.99837 -2.17836,-5.94375 -3.54205,-5.95664 -1.72334,-0.0163 -1.7531,-0.19116 -0.19975,-1.17368 1.57463,-0.99601 1.53171,-1.47895 -0.3125,-3.51679 -1.17579,-1.29924 -2.1378,-3.18983 -2.1378,-4.20132 0,-1.01148 -0.51724,-2.37344 -1.1494,-3.02657 -0.63217,-0.65313 -1.47021,-4.14644 -1.8623,-7.76293 -1.20345,-11.10017 -2.26576,-16.54957 -3.22616,-16.54957 -0.5051,0 -0.75512,-1.48709 -0.5556,-3.30464 0.19952,-1.81755 -0.42192,-4.08931 -1.38096,-5.04836 -1.11516,-1.11515 -1.47687,-3.07809 -1.0034,-5.44536 0.62453,-3.12273 0.34628,-3.70164 -1.77921,-3.70164 -2.24566,0 -2.55421,0.91711 -2.8387,8.4375 -0.78718,20.80979 0.12463,43.31144 2.05605,50.73914 0.86549,3.3284 1.24283,6.91366 0.83853,7.96723 -0.42944,1.11911 0.1872,2.43174 1.48301,3.15691 1.68049,0.94045 1.83463,1.4783 0.63597,2.21911 -1.01064,0.62461 -1.21937,1.81351 -0.57783,3.29146 0.55236,1.2725 0.88802,3.0294 0.74591,3.9042 -0.14211,0.8748 0.61293,2.46185 1.67785,3.52679 1.15581,1.1558 1.93624,4.1315 1.93624,7.38266 0,3.3608 0.77784,6.22426 2.03125,7.47768 1.11719,1.11718 2.03125,3.40737 2.03125,5.08928 0,1.76137 0.72879,3.05804 1.71875,3.05804 0.94531,0 1.80204,0.98438 1.90382,2.1875 0.43724,5.16793 0.63204,6.2051 2.12533,11.31594 0.8643,2.95814 2.6668,6.47376 4.00554,7.8125 1.33873,1.33873 1.87156,2.43406 1.18406,2.43406 -2.23976,0 -1.31546,2.31075 1.25,3.125 1.39145,0.44162 2.5,1.89129 2.5,3.26927 0,1.3617 1.96875,5.55347 4.375,9.31504 2.40625,3.76158 4.375,7.70525 4.375,8.76373 0,1.05847 0.522,1.60188 1.16,1.20758 0.63801,-0.39431 1.51966,0.41624 1.95924,1.80123 0.43957,1.38499 1.32382,2.51815 1.965,2.51815 0.64116,0 1.16576,1.14966 1.16576,2.5548 0,1.72827 0.6981,2.43596 2.15784,2.1875 1.43996,-0.2451 2.16771,0.46441 2.1875,2.1327 0.0164,1.375 0.87341,2.51486 1.90466,2.53304 3.09774,0.0546 4.63797,1.59431 5.39844,5.39667 0.55118,2.7559 1.59764,3.782 4.43592,4.34967 2.23424,0.44684 4.03901,1.76515 4.52869,3.30797 0.44776,1.41079 2.46176,3.4171 4.47554,4.45846 2.01377,1.04137 3.66141,2.78288 3.66141,3.87003 0,1.12381 0.712,1.70341 1.65025,1.34337 0.90764,-0.34828 3.97607,1.51434 6.81876,4.13918 2.84269,2.62485 6.31883,5.13754 7.72475,5.58376 1.40593,0.44623 2.55624,1.26403 2.55624,1.81733 0,0.5533 2.23096,1.36275 4.9577,1.79877 3.55238,0.56805 4.7669,1.28998 4.2846,2.54683 -0.74574,1.94335 1.38001,2.86146 8.6535,3.73747 2.62394,0.31604 5.58394,1.24945 6.57779,2.07427 0.99385,0.82482 3.62823,1.71123 5.8542,1.96979 2.22596,0.25858 4.23471,1.02774 4.46387,1.70926 0.22918,0.68152 2.76043,1.30568 5.625,1.38702 2.86459,0.0814 6.89584,0.55858 8.95834,1.06053 2.0625,0.50195 11.2241,0.85728 20.3591,0.78962 13.30795,-0.0986 16.84449,-0.4957 17.79336,-1.99804 z M 844.39234,310.57402 c 1.3677,-1.23775 2.28593,-1.4888 2.28593,-0.625 0,0.79406 0.84375,1.44374 1.875,1.44374 1.03125,0 1.875,-0.76117 1.875,-1.69151 0,-1.27603 1.53162,-1.54434 6.23553,-1.09235 3.42953,0.32954 7.82715,-0.0601 9.77246,-0.86589 3.09195,-1.28073 6.35545,-1.92223 12.50328,-2.45773 0.89995,-0.0784 1.38017,-0.5644 1.06714,-1.08002 -0.31301,-0.51563 2.21506,-0.99583 5.61795,-1.06713 4.88048,-0.10225 6.59634,-0.71392 8.12505,-2.89646 1.06589,-1.52176 2.68236,-2.4812 3.59218,-2.13207 2.27308,0.87226 9.52385,-1.86838 11.98303,-4.52934 1.11189,-1.20313 3.22127,-2.1875 4.6875,-2.1875 1.46623,0 2.66588,-0.53701 2.66588,-1.19336 0,-0.65634 1.97666,-1.56418 4.39259,-2.01742 2.41592,-0.45322 4.93006,-1.74433 5.58698,-2.86913 0.65693,-1.1248 1.21152,-1.54735 1.23242,-0.93902 0.0209,0.60834 1.14395,-0.2999 2.49565,-2.0183 1.35168,-1.71841 4.16418,-3.83126 6.25,-4.69522 2.0858,-0.86396 3.79236,-2.34636 3.79236,-3.2942 0,-0.94784 0.84375,-1.72335 1.875,-1.72335 1.03125,0 1.875,-0.5625 1.875,-1.25 0,-0.6875 0.89641,-1.25 1.99202,-1.25 1.09562,0 2.28622,-1.125 2.64579,-2.5 0.35958,-1.375 1.39871,-2.5 2.3092,-2.5 5.46603,0 3.33049,-9.50801 -3.1678,-14.10394 -3.12395,-2.20942 -4.66462,-4.1417 -4.22201,-5.29512 0.44428,-1.15778 -0.43761,-2.24755 -2.4326,-3.00604 -1.99675,-0.75916 -3.67071,-2.82959 -4.6246,-5.7199 -0.92826,-2.81267 -2.63331,-4.96281 -4.49753,-5.67159 -1.80551,-0.68645 -3.00247,-2.15051 -3.00247,-3.67247 0,-1.39202 -0.51843,-2.53094 -1.15205,-2.53094 -0.63362,0 -2.743,-2.51071 -4.6875,-5.57936 -1.9445,-3.06865 -4.23858,-5.5999 -5.09795,-5.625 -0.85938,-0.0251 -1.5625,-0.60814 -1.5625,-1.29564 0,-0.6875 -0.90392,-1.25 -2.00874,-1.25 -1.27199,0 -1.74483,0.6877 -1.28922,1.875 0.42608,1.11039 0.0136,1.875 -1.0115,1.875 -0.95205,0 -2.47795,1.6875 -3.3909,3.75 -0.93516,2.11266 -2.61825,3.75 -3.85478,3.75 -1.20717,0 -2.19486,0.52962 -2.19486,1.17694 0,1.44925 -14.29294,12.57306 -16.15505,12.57306 -0.73972,0 -1.34495,0.81736 -1.34495,1.81635 0,0.999 -1.82813,2.60745 -4.0625,3.57434 -7.20854,3.11938 -10.2178,4.63647 -15.14585,7.63563 -2.65834,1.61784 -9.00259,3.68233 -14.09832,4.58774 -6.61759,1.17583 -9.08737,2.10908 -8.64339,3.26608 0.68494,1.78492 -0.37744,1.85586 -24.2696,1.62056 -8.7786,-0.0865 -14.66863,-0.66544 -15.17955,-1.49213 -0.45918,-0.74296 -2.30095,-1.07058 -4.09283,-0.72805 -1.79187,0.34254 -3.25796,0.1383 -3.25796,-0.45386 0,-0.59216 -1.26562,-1.09575 -2.8125,-1.11907 -1.54687,-0.0234 -5.0625,-1.12924 -7.8125,-2.45759 -2.75,-1.32835 -5.70312,-2.43426 -6.5625,-2.45759 -0.85938,-0.0233 -1.5625,-0.88616 -1.5625,-1.91741 0,-1.60479 -1.35488,-2.14826 -4.46968,-1.79289 -0.39581,0.0451 -1.67956,-1.02467 -2.85277,-2.3774 -1.17321,-1.35271 -3.52124,-2.65529 -5.21783,-2.8946 -1.9306,-0.27231 -2.97061,-1.15207 -2.77971,-2.35138 0.18359,-1.15338 -1.27655,-2.51326 -3.66757,-3.41577 -2.18492,-0.82472 -3.61459,-1.85748 -3.17704,-2.29504 0.91562,-0.91562 -0.3795,-2.25572 -6.84866,-7.08648 -2.79172,-2.08468 -4.37045,-4.16149 -3.96555,-5.21664 0.3793,-0.98846 -0.45995,-2.35925 -1.92424,-3.14291 -1.42832,-0.76442 -2.59695,-2.55524 -2.59695,-3.9796 0,-1.82698 -0.57139,-2.3705 -1.93992,-1.84534 -1.12054,0.42999 -1.61485,0.21844 -1.1703,-0.50086 0.42328,-0.68489 -0.0861,-2.10098 -1.13197,-3.14685 -1.04587,-1.04588 -1.58406,-2.72906 -1.19596,-3.74042 0.38809,-1.01135 0.0829,-1.83882 -0.67811,-1.83882 -0.76106,0 -1.38374,-1.33737 -1.38374,-2.97195 0,-1.63456 -0.83756,-3.66705 -1.86124,-4.51663 -1.02367,-0.84958 -1.55299,-2.04346 -1.17622,-2.65306 0.37675,-0.6096 -0.19194,-1.10836 -1.26376,-1.10836 -1.59182,0 -1.94878,1.71727 -1.94878,9.375 0,5.15625 0.46508,9.375 1.03351,9.375 0.56843,0 0.77669,1.74981 0.4628,3.88849 -0.31389,2.13866 0.0536,4.27431 0.81661,4.7459 0.76303,0.47157 1.638,2.79987 1.94438,5.17401 0.30639,2.37412 1.15299,5.87816 1.88135,7.78675 0.72836,1.90857 1.60138,4.99816 1.94004,6.86574 0.33865,1.86757 1.15914,3.57672 1.8233,3.79811 0.66416,0.22139 0.89773,1.20992 0.51905,2.19676 -0.37868,0.98683 -0.0659,1.79424 0.69522,1.79424 0.76106,0 1.38374,0.87695 1.38374,1.94877 0,1.07183 0.5625,1.60113 1.25,1.17623 0.6875,-0.4249 1.25,0.3577 1.25,1.73911 0,1.38141 0.7087,2.96149 1.57489,3.51128 0.86618,0.54979 2.6816,3.10898 4.03425,5.68711 1.35265,2.57812 2.89396,4.6875 3.42511,4.6875 0.53116,0 0.96575,0.8614 0.96575,1.91422 0,1.05284 0.98437,2.26166 2.1875,2.68628 3.57155,1.2605 7.8125,5.66696 7.8125,8.11739 0,1.25516 0.7487,2.28211 1.66377,2.28211 0.91508,0 2.36423,1.26562 3.22034,2.8125 1.54212,2.78638 9.2126,8.4375 11.45257,8.4375 0.63982,0 1.16332,0.84375 1.16332,1.875 0,1.03125 1.05613,1.875 2.34695,1.875 1.29081,0 3.06274,0.86249 3.9376,1.91662 0.87486,1.05416 2.20936,1.69384 2.96556,1.42152 1.6866,-0.60738 8.24989,2.58157 8.24989,4.00844 0,1.21524 13.24437,4.72995 21.11765,5.60405 3.02096,0.33539 5.97409,1.35558 6.5625,2.26708 0.87151,1.35004 1.29804,1.30968 2.30071,-0.21771 0.95108,-1.4488 1.23521,-1.48944 1.25,-0.17876 0.0113,0.9912 0.79848,1.39717 1.89414,0.97672 1.03125,-0.39572 1.875,-0.17465 1.875,0.49127 0,2.06722 10.24576,1.37582 12.71407,-0.85797 z m -21.17398,-66.68126 c 0.8587,-1.375 2.3299,-2.5 3.26933,-2.5 1.01914,0 1.41223,-0.7709 0.97462,-1.91131 -0.52763,-1.37494 0.31181,-2.12037 2.99126,-2.65625 2.04859,-0.40972 3.7247,-1.12553 3.7247,-1.59068 0,-0.46516 2.56611,-3.4859 5.70246,-6.71277 3.13637,-3.22687 5.35316,-6.43222 4.92624,-7.12302 -0.42694,-0.69078 0.24132,-1.26874 1.48503,-1.28436 1.28872,-0.0161 3.11353,-1.7634 4.24288,-4.0625 1.14488,-2.33071 3.11335,-4.20136 4.6619,-4.4302 2.4959,-0.36884 7.73149,-6.15933 7.73149,-8.55094 0,-0.5836 -1.6875,-2.65382 -3.75,-4.60048 -2.0625,-1.94668 -3.75,-4.05423 -3.75,-4.68345 0,-0.62922 -0.83899,-1.14404 -1.86441,-1.14404 -1.02543,0 -2.56698,-1.125 -3.42568,-2.5 -0.8587,-1.375 -2.26972,-2.5 -3.1356,-2.5 -0.86587,0 -1.57431,-0.84375 -1.57431,-1.875 0,-1.03125 -0.48781,-1.875 -1.08401,-1.875 -0.59622,0 -5.37746,-4.30739 -10.625,-9.57196 -5.24755,-5.26459 -9.54099,-9.07693 -9.54099,-8.47188 0,0.60506 -0.87565,-0.15006 -1.94588,-1.67802 -1.07023,-1.52798 -2.78051,-2.77814 -3.80062,-2.77814 -2.53064,0 -9.2535,5.10441 -9.2535,7.02584 0,0.85563 -1.125,1.91275 -2.5,2.34916 -1.375,0.43641 -2.5,1.35824 -2.5,2.04852 0,1.98087 -2.99135,4.45437 -4.69866,3.88526 -0.85324,-0.28442 -1.55134,0.28633 -1.55134,1.26832 0,0.98199 -1.125,2.80354 -2.5,4.0479 -1.375,1.24436 -2.5,3.01904 -2.5,3.94374 0,0.92468 -0.60267,1.68126 -1.33929,1.68126 -1.69395,0 -4.08735,2.37587 -6.00727,5.9633 -0.82027,1.53269 -2.24711,2.7867 -3.17077,2.7867 -0.92366,0 -2.37539,1.68035 -3.2261,3.73411 -0.85068,2.05377 -2.04393,3.42681 -2.65164,3.05123 -0.60772,-0.37559 -1.10493,0.99991 -1.10493,3.05666 0,2.44795 0.75553,3.99355 2.1875,4.47499 1.20312,0.4045 3.59375,2.67692 5.3125,5.04982 1.71875,2.3729 3.63398,4.32985 4.25605,4.34878 1.49732,0.0456 10.74395,9.80261 10.74395,11.33705 0,0.65855 0.83266,1.19736 1.85036,1.19736 1.01769,0 4.81456,3.05174 8.4375,6.78162 7.28165,7.49665 12.19679,8.96062 15.00223,4.46838 z"
       id="path4210"
       inkscape:connector-curvature="0" />
  </g>
</svg>
