<?xml version="1.0" encoding="UTF-8" standalone="no"?>
<!-- Created with Inkscape (http://www.inkscape.org/) -->

<svg
   xmlns:dc="http://purl.org/dc/elements/1.1/"
   xmlns:cc="http://creativecommons.org/ns#"
   xmlns:rdf="http://www.w3.org/1999/02/22-rdf-syntax-ns#"
   xmlns:svg="http://www.w3.org/2000/svg"
   xmlns="http://www.w3.org/2000/svg"
   xmlns:sodipodi="http://sodipodi.sourceforge.net/DTD/sodipodi-0.dtd"
   xmlns:inkscape="http://www.inkscape.org/namespaces/inkscape"
   width="32.102779mm"
   height="9.1722221mm"
   viewBox="0 0 113.75001 32.5"
   id="svg2"
   version="1.1"
   inkscape:version="0.91 r13725"
   sodipodi:docname="woot.svg">
  <defs
     id="defs4" />
  <sodipodi:namedview
     id="base"
     pagecolor="#ffffff"
     bordercolor="#666666"
     borderopacity="1.0"
     inkscape:pageopacity="0.0"
     inkscape:pageshadow="2"
     inkscape:zoom="1.3065878"
     inkscape:cx="-312.86225"
     inkscape:cy="125.06123"
     inkscape:document-units="px"
     inkscape:current-layer="layer1"
     showgrid="false"
     fit-margin-top="0"
     fit-margin-left="0"
     fit-margin-right="0"
     fit-margin-bottom="0"
     inkscape:window-width="1920"
     inkscape:window-height="993"
     inkscape:window-x="0"
     inkscape:window-y="24"
     inkscape:window-maximized="1" />
  <metadata
     id="metadata7">
    <rdf:RDF>
      <cc:Work
         rdf:about="">
        <dc:format>image/svg+xml</dc:format>
        <dc:type
           rdf:resource="http://purl.org/dc/dcmitype/StillImage" />
        <dc:title />
      </cc:Work>
    </rdf:RDF>
  </metadata>
  <g
     inkscape:label="Layer 1"
     inkscape:groupmode="layer"
     id="layer1"
     transform="translate(67.889572,-262.05334)">
    <path
       inkscape:connector-curvature="0"
       id="path4709"
       d="m -53.848085,286.98336 c -2.248182,-2.55393 -7.705332,-12.9615 -7.081541,-13.50552 0.219836,-0.19172 1.676685,-0.74122 3.237443,-1.22111 2.415404,-0.74267 3.118666,-0.20018 4.725329,3.6451 2.026481,4.85006 4.92389,4.84354 3.996271,-0.009 -0.403296,-2.10971 0.126135,-3.05989 1.974215,-3.54318 3.163439,-0.82725 4.585998,0.0152 4.610585,2.7303 0.0105,1.16255 0.54682,2.94827 1.191762,3.96827 0.92371,1.46088 1.596276,0.84059 3.168473,-2.92221 1.414749,-3.38596 2.553305,-4.56282 3.910473,-4.04203 1.053041,0.40409 2.13221,0.73471 2.398155,0.73471 0.265943,0 0.124562,0.98437 -0.314192,2.1875 -0.721032,1.97719 -0.539472,1.96081 1.888508,-0.17045 3.932879,-3.45226 12.504937,-3.20225 15.463142,0.45098 l 2.274538,2.80893 2.1875,-2.6765 c 5.4374059,-6.65289 17.8306759,-3.87322 17.7933584,3.99086 -0.024362,5.1345 -1.0403975,6.67289 -5.5359537,8.3821 -4.5977512,1.74806 -10.1824012,0.55589 -12.4303817,-2.65355 -1.711199,-2.44308 -1.789078,-2.43168 -4.944734,0.72398 -5.990364,5.99036 -17.382289,2.92197 -17.382289,-4.68189 0,-1.84908 -0.174946,-3.36196 -0.388769,-3.36196 -0.213823,0 -1.638697,2.22395 -3.166387,4.94211 -3.403614,6.05591 -5.643513,7.08146 -7.532594,3.44884 -2.169381,-4.17162 -2.252924,-4.17843 -5.243869,-0.42743 -2.673379,3.35274 -2.863212,3.40025 -4.799042,1.20115 z m 34.377154,-5.20361 c 2.382746,-2.6329 1.589999,-3.96106 -2.36427,-3.96106 -3.674492,0 -6.031327,2.7884 -4.03998,4.77974 2.076291,2.07629 4.007787,1.82938 6.40425,-0.81868 z m 21.4410067,-2.06894 c 0,-3.06344 -3.006975,-3.79305 -6.1526475,-1.49288 -3.101045,2.26754 -1.42142,4.85225 2.8331925,4.3599 2.3495637,-0.2719 3.319455,-1.1096 3.319455,-2.86702 z m 23.5622653,7.44439 c -0.885828,-2.30842 1.38859,-4.2873 4.962174,-4.31737 1.647712,-0.0139 2.164372,0.75585 1.875,2.79336 -0.495358,3.48788 -5.643243,4.63535 -6.837174,1.52401 z m -13.295114,-0.11103 c -0.490682,-0.49068 -0.892151,-3.0484 -0.892151,-5.68381 0,-2.63542 -0.5625,-4.79167 -1.25,-4.79167 -0.6875003,0 -1.2500003,-0.84375 -1.2500003,-1.875 0,-1.03125 0.5625,-1.875 1.2500003,-1.875 0.6875,0 1.25,-1.34607 1.25,-2.99126 0,-2.89977 2.052304,-4.50874 5.751049,-4.50874 1.292174,0 1.576373,0.87737 1.012256,3.125 -0.650858,2.59323 -0.335846,3.125 1.851185,3.125 1.802176,0 2.63551,0.79049 2.63551,2.5 0,1.66667 -0.833334,2.5 -2.5,2.5 -1.94795,0 -2.5,0.83333 -2.5,3.77381 0,3.43956 0.287755,3.7016 3.248732,2.95844 2.718259,-0.68224 3.175742,-0.43099 2.801717,1.53868 -0.334403,1.76103 -1.71534,2.44761 -5.48158,2.72539 -2.769012,0.20422 -5.436034,-0.0301 -5.926718,-0.52084 z m 16.102298,-6.53221 c -1.315464,-2.12846 -2.27283,-11.41394 -1.495957,-14.50925 0.642049,-2.55813 1.563262,-3.18402 4.686362,-3.18402 l 3.887222,0 -0.835767,6.30033 c -1.251293,9.43271 -4.165705,14.75223 -6.24186,11.39294 z"
       style="fill:#65940f" />
  </g>
</svg>
